<svg xmlns="http://www.w3.org/2000/svg" xmlns:xlink="http://www.w3.org/1999/xlink" width="500" zoomAndPan="magnify" viewBox="0 0 375 374.999991" height="500" preserveAspectRatio="xMidYMid meet" version="1.0"><defs><g/><clipPath id="aea9565820"><path d="M 128.726562 91 L 156 91 L 156 135 L 128.726562 135 Z M 128.726562 91 " clip-rule="nonzero"/></clipPath><clipPath id="49f50b6ba2"><path d="M 217 129 L 246.476562 129 L 246.476562 175 L 217 175 Z M 217 129 " clip-rule="nonzero"/></clipPath><clipPath id="f64ecc02b1"><path d="M 174 88 L 246.476562 88 L 246.476562 151 L 174 151 Z M 174 88 " clip-rule="nonzero"/></clipPath><clipPath id="16281326ce"><path d="M 128.726562 130 L 146 130 L 146 158 L 128.726562 158 Z M 128.726562 130 " clip-rule="nonzero"/></clipPath><clipPath id="960547f099"><path d="M 143 69.390625 L 181 69.390625 L 181 131 L 143 131 Z M 143 69.390625 " clip-rule="nonzero"/></clipPath></defs><g clip-path="url(#aea9565820)"><path fill="#ffbc2e" d="M 152.925781 134.410156 C 153.292969 134.652344 153.777344 134.609375 154.09375 134.304688 L 155.675781 132.777344 C 155.628906 132.714844 155.574219 132.660156 155.53125 132.597656 C 150.867188 126.09375 140.433594 109.839844 138.609375 92.707031 C 138.53125 91.992188 137.734375 91.632812 137.136719 92.035156 C 132.070312 95.449219 128.734375 101.226562 128.734375 107.789062 L 128.734375 117.90625 C 128.734375 118.222656 128.890625 118.515625 129.152344 118.6875 L 152.925781 134.410156 " fill-opacity="1" fill-rule="nonzero"/></g><g clip-path="url(#49f50b6ba2)"><path fill="#5db3ff" d="M 244.898438 129.472656 L 217.710938 155.691406 C 217.28125 156.105469 217.34375 156.8125 217.84375 157.140625 L 243.273438 173.996094 C 243.742188 174.308594 244.394531 174.148438 244.636719 173.640625 C 245.820312 171.164062 246.484375 168.394531 246.484375 165.46875 L 246.484375 130.144531 C 246.484375 129.320312 245.492188 128.898438 244.898438 129.472656 " fill-opacity="1" fill-rule="nonzero"/></g><g clip-path="url(#f64ecc02b1)"><path fill="#acde50" d="M 227.460938 88.789062 L 215.625 88.789062 C 215.382812 88.789062 215.152344 88.882812 214.976562 89.050781 L 175.136719 127.472656 C 174.707031 127.890625 174.769531 128.59375 175.269531 128.925781 L 207.972656 150.601562 C 208.339844 150.84375 208.824219 150.800781 209.140625 150.496094 L 227.460938 132.824219 C 227.890625 132.410156 227.824219 131.703125 227.328125 131.371094 L 211.105469 120.644531 C 210.605469 120.316406 210.539062 119.609375 210.96875 119.191406 L 216.730469 113.636719 C 217.046875 113.332031 217.53125 113.289062 217.898438 113.53125 L 234.816406 124.71875 C 235.179688 124.957031 235.667969 124.914062 235.984375 124.609375 L 246.199219 114.757812 C 246.382812 114.582031 246.484375 114.339844 246.484375 114.085938 L 246.484375 107.789062 C 246.484375 97.296875 237.96875 88.789062 227.460938 88.789062 " fill-opacity="1" fill-rule="nonzero"/></g><path fill="#5db3ff" d="M 184.507812 104.976562 L 199.621094 90.398438 C 200.226562 89.8125 199.816406 88.789062 198.972656 88.789062 L 186.507812 88.789062 C 186.007812 88.789062 185.609375 89.179688 185.585938 89.675781 C 185.367188 94.5625 184.382812 99.410156 182.96875 104.03125 C 182.6875 104.957031 183.808594 105.648438 184.507812 104.976562 " fill-opacity="1" fill-rule="nonzero"/><g clip-path="url(#16281326ce)"><path fill="#acde50" d="M 145.574219 142.519531 C 146.003906 142.105469 145.941406 141.398438 145.441406 141.066406 L 130.1875 130.980469 C 129.5625 130.570312 128.734375 131.015625 128.734375 131.761719 L 128.734375 156.558594 C 128.734375 157.382812 129.726562 157.804688 130.320312 157.230469 L 145.574219 142.519531 " fill-opacity="1" fill-rule="nonzero"/></g><path fill="#ffbc2e" d="M 197.613281 155.355469 C 197.246094 155.113281 196.761719 155.15625 196.445312 155.460938 L 168.035156 182.863281 C 167.429688 183.445312 167.84375 184.46875 168.683594 184.46875 L 194.105469 184.46875 C 194.726562 184.46875 195.3125 184.742188 195.714844 185.214844 L 210.726562 202.804688 C 212.003906 204.300781 214.453125 203.398438 214.453125 201.433594 L 214.453125 186.585938 C 214.453125 185.417969 215.402344 184.46875 216.570312 184.46875 L 227.460938 184.46875 C 230.511719 184.46875 233.382812 183.742188 235.933594 182.464844 C 236.589844 182.136719 236.664062 181.234375 236.054688 180.832031 L 197.613281 155.355469 " fill-opacity="1" fill-rule="nonzero"/><path fill="#5db3ff" d="M 187.742188 148.8125 L 167.78125 135.585938 C 167.414062 135.339844 166.929688 135.386719 166.613281 135.691406 L 130.101562 170.902344 C 129.835938 171.160156 129.734375 171.554688 129.863281 171.902344 C 132.503906 179.230469 139.511719 184.46875 147.753906 184.46875 L 152.03125 184.46875 C 152.273438 184.46875 152.507812 184.375 152.679688 184.207031 L 187.875 150.265625 C 188.304688 149.851562 188.242188 149.144531 187.742188 148.8125 " fill-opacity="1" fill-rule="nonzero"/><g clip-path="url(#960547f099)"><path fill="#fb4d48" d="M 161.984375 94.738281 C 158.078125 94.738281 154.910156 91.574219 154.910156 87.671875 C 154.910156 83.773438 158.078125 80.609375 161.984375 80.609375 C 165.890625 80.609375 169.054688 83.773438 169.054688 87.671875 C 169.054688 91.574219 165.890625 94.738281 161.984375 94.738281 Z M 143.808594 88.691406 C 144.253906 105.730469 155.371094 122.953125 159.996094 129.40625 C 160.972656 130.765625 162.988281 130.78125 163.964844 129.417969 C 168.675781 122.84375 180.171875 105.035156 180.171875 87.648438 C 180.171875 77.613281 172.03125 69.480469 161.988281 69.480469 C 151.371094 69.476562 143.546875 78.570312 143.808594 88.691406 " fill-opacity="1" fill-rule="nonzero"/></g><g fill="#ffffff" fill-opacity="1"><g transform="translate(51.781062, 253.928173)"><g><path d="M 16.109375 0.671875 C 18.84375 0.671875 21.984375 0.078125 24.046875 -2.78125 L 24.046875 0 L 30.421875 0 L 30.421875 -16.65625 L 17.203125 -16.65625 L 17.203125 -11.03125 L 23.421875 -11.03125 C 23.234375 -7.203125 20.84375 -5.59375 16.890625 -5.59375 C 11.421875 -5.59375 8.609375 -9.265625 8.609375 -14.9375 C 8.609375 -20.578125 11.421875 -24.203125 16.109375 -24.203125 C 19.796875 -24.203125 21.9375 -22.71875 22.640625 -19.75 L 30.3125 -19.75 C 29.328125 -26.203125 24.5625 -30.46875 16.109375 -30.46875 C 5.90625 -30.46875 1.21875 -23.265625 1.21875 -14.9375 C 1.21875 -6.609375 5.90625 0.671875 16.109375 0.671875 Z M 16.109375 0.671875 "/></g></g></g><g fill="#ffffff" fill-opacity="1"><g transform="translate(86.06157, 253.928173)"><g><path d="M 22.71875 0 L 22.71875 -6.25 L 9.34375 -6.25 L 9.34375 -11.8125 L 21.4375 -11.8125 L 21.4375 -18.03125 L 9.34375 -18.03125 L 9.34375 -23.578125 L 22.71875 -23.578125 L 22.71875 -29.84375 L 2.34375 -29.84375 L 2.34375 0 Z M 22.71875 0 "/></g></g></g><g fill="#ffffff" fill-opacity="1"><g transform="translate(112.407345, 253.928173)"><g><path d="M 16.15625 0.671875 C 26.28125 0.671875 31.015625 -6.609375 31.015625 -14.9375 C 31.015625 -23.265625 26.28125 -30.46875 16.15625 -30.46875 C 5.9375 -30.46875 1.25 -23.265625 1.25 -14.9375 C 1.25 -6.609375 5.9375 0.671875 16.15625 0.671875 Z M 16.15625 -5.59375 C 11.453125 -5.59375 8.640625 -9.265625 8.640625 -14.9375 C 8.640625 -20.578125 11.453125 -24.203125 16.15625 -24.203125 C 20.84375 -24.203125 23.625 -20.578125 23.625 -14.9375 C 23.625 -9.265625 20.84375 -5.59375 16.15625 -5.59375 Z M 16.15625 -5.59375 "/></g></g></g><g fill="#ffffff" fill-opacity="1"><g transform="translate(150.32327, 253.928173)"><g><path d="M 17.203125 -13.5 C 20.765625 -14.59375 22.875 -17.359375 22.875 -21.4375 C 22.875 -26.984375 19.15625 -29.84375 13.421875 -29.84375 L 3.09375 -29.84375 L 3.09375 0 L 5.78125 0 L 5.78125 -12.984375 L 13.421875 -12.984375 C 13.8125 -12.984375 14.203125 -12.984375 14.546875 -13.03125 L 20.1875 0 L 23.15625 0 Z M 5.78125 -15.328125 L 5.78125 -27.421875 L 13.0625 -27.421875 C 17.59375 -27.421875 20.21875 -25.1875 20.21875 -21.359375 C 20.21875 -17.484375 17.671875 -15.328125 13.0625 -15.328125 Z M 5.78125 -15.328125 "/></g></g></g><g fill="#ffffff" fill-opacity="1"><g transform="translate(178.037469, 253.928173)"><g><path d="M 22.09375 0 L 22.09375 -2.421875 L 5.78125 -2.421875 L 5.78125 -13.765625 L 20.109375 -13.765625 L 20.109375 -16.1875 L 5.78125 -16.1875 L 5.78125 -27.421875 L 22.09375 -27.421875 L 22.09375 -29.84375 L 3.09375 -29.84375 L 3.09375 0 Z M 22.09375 0 "/></g></g></g><g fill="#ffffff" fill-opacity="1"><g transform="translate(204.579048, 253.928173)"><g><path d="M 5.78125 0 L 5.78125 -12.984375 L 13.421875 -12.984375 C 19.234375 -12.984375 22.875 -16.078125 22.875 -21.4375 C 22.875 -26.984375 19.15625 -29.84375 13.421875 -29.84375 L 3.09375 -29.84375 L 3.09375 0 Z M 5.78125 -27.421875 L 13.0625 -27.421875 C 17.59375 -27.421875 20.21875 -25.1875 20.21875 -21.359375 C 20.21875 -17.484375 17.671875 -15.328125 13.0625 -15.328125 L 5.78125 -15.328125 Z M 5.78125 -27.421875 "/></g></g></g><g fill="#ffffff" fill-opacity="1"><g transform="translate(231.550593, 253.928173)"><g><path d="M 15.53125 0.390625 C 24.71875 0.390625 29.09375 -6.8125 29.09375 -14.9375 C 29.09375 -23.078125 24.71875 -30.234375 15.53125 -30.234375 C 6.328125 -30.234375 1.953125 -23.078125 1.953125 -14.9375 C 1.953125 -6.8125 6.328125 0.390625 15.53125 0.390625 Z M 15.53125 -2.03125 C 8.375 -2.03125 4.65625 -7.625 4.65625 -14.9375 C 4.65625 -22.21875 8.375 -27.8125 15.53125 -27.8125 C 22.6875 -27.8125 26.40625 -22.21875 26.40625 -14.9375 C 26.40625 -7.625 22.6875 -2.03125 15.53125 -2.03125 Z M 15.53125 -2.03125 "/></g></g></g><g fill="#ffffff" fill-opacity="1"><g transform="translate(265.323343, 253.928173)"><g><path d="M 17.203125 -13.5 C 20.765625 -14.59375 22.875 -17.359375 22.875 -21.4375 C 22.875 -26.984375 19.15625 -29.84375 13.421875 -29.84375 L 3.09375 -29.84375 L 3.09375 0 L 5.78125 0 L 5.78125 -12.984375 L 13.421875 -12.984375 C 13.8125 -12.984375 14.203125 -12.984375 14.546875 -13.03125 L 20.1875 0 L 23.15625 0 Z M 5.78125 -15.328125 L 5.78125 -27.421875 L 13.0625 -27.421875 C 17.59375 -27.421875 20.21875 -25.1875 20.21875 -21.359375 C 20.21875 -17.484375 17.671875 -15.328125 13.0625 -15.328125 Z M 5.78125 -15.328125 "/></g></g></g><g fill="#ffffff" fill-opacity="1"><g transform="translate(293.037549, 253.928173)"><g><path d="M 13.734375 0 L 13.734375 -27.421875 L 24.25 -27.421875 L 24.25 -29.84375 L 0.546875 -29.84375 L 0.546875 -27.421875 L 11.03125 -27.421875 L 11.03125 0 Z M 13.734375 0 "/></g></g></g><g fill="#ffffff" fill-opacity="1"><g transform="translate(56.425173, 280.491398)"><g><path d="M 5.234375 -2.953125 L 3.984375 -6.171875 C 3.941406 -6.265625 3.898438 -6.375 3.859375 -6.5 C 3.828125 -6.632812 3.789062 -6.773438 3.75 -6.921875 C 3.675781 -6.617188 3.597656 -6.367188 3.515625 -6.171875 L 2.265625 -2.953125 Z M 7.46875 0 L 6.640625 0 C 6.535156 0 6.453125 -0.0195312 6.390625 -0.0625 C 6.335938 -0.113281 6.296875 -0.175781 6.265625 -0.25 L 5.53125 -2.171875 L 1.96875 -2.171875 L 1.21875 -0.25 C 1.195312 -0.1875 1.15625 -0.128906 1.09375 -0.078125 C 1.03125 -0.0234375 0.953125 0 0.859375 0 L 0.03125 0 L 3.203125 -7.9375 L 4.296875 -7.9375 Z M 7.46875 0 "/></g></g></g><g fill="#ffffff" fill-opacity="1"><g transform="translate(65.423198, 280.491398)"><g/></g></g><g fill="#ffffff" fill-opacity="1"><g transform="translate(69.755987, 280.491398)"><g><path d="M 11.296875 -7.9375 L 8.828125 0 L 7.859375 0 L 5.84375 -6.046875 C 5.832031 -6.109375 5.816406 -6.171875 5.796875 -6.234375 C 5.773438 -6.304688 5.757812 -6.378906 5.75 -6.453125 C 5.726562 -6.378906 5.707031 -6.304688 5.6875 -6.234375 C 5.664062 -6.171875 5.648438 -6.109375 5.640625 -6.046875 L 3.609375 0 L 2.640625 0 L 0.171875 -7.9375 L 1.0625 -7.9375 C 1.15625 -7.9375 1.234375 -7.910156 1.296875 -7.859375 C 1.367188 -7.816406 1.410156 -7.757812 1.421875 -7.6875 L 3.0625 -2.171875 C 3.09375 -2.066406 3.117188 -1.957031 3.140625 -1.84375 C 3.160156 -1.726562 3.1875 -1.609375 3.21875 -1.484375 C 3.238281 -1.609375 3.257812 -1.726562 3.28125 -1.84375 C 3.3125 -1.957031 3.347656 -2.066406 3.390625 -2.171875 L 5.25 -7.6875 C 5.269531 -7.75 5.3125 -7.804688 5.375 -7.859375 C 5.445312 -7.910156 5.523438 -7.9375 5.609375 -7.9375 L 5.921875 -7.9375 C 6.023438 -7.9375 6.101562 -7.910156 6.15625 -7.859375 C 6.21875 -7.816406 6.265625 -7.757812 6.296875 -7.6875 L 8.15625 -2.171875 C 8.1875 -2.066406 8.210938 -1.957031 8.234375 -1.84375 C 8.265625 -1.738281 8.296875 -1.625 8.328125 -1.5 C 8.347656 -1.625 8.367188 -1.738281 8.390625 -1.84375 C 8.410156 -1.957031 8.429688 -2.066406 8.453125 -2.171875 L 10.109375 -7.6875 C 10.117188 -7.75 10.15625 -7.804688 10.21875 -7.859375 C 10.289062 -7.910156 10.375 -7.9375 10.46875 -7.9375 Z M 11.296875 -7.9375 "/></g></g></g><g fill="#ffffff" fill-opacity="1"><g transform="translate(82.726671, 280.491398)"><g><path d="M 5.90625 -0.875 L 5.90625 0 L 1.015625 0 L 1.015625 -7.9375 L 5.90625 -7.9375 L 5.90625 -7.0625 L 2.09375 -7.0625 L 2.09375 -4.421875 L 5.171875 -4.421875 L 5.171875 -3.578125 L 2.09375 -3.578125 L 2.09375 -0.875 Z M 5.90625 -0.875 "/></g></g></g><g fill="#ffffff" fill-opacity="1"><g transform="translate(90.622111, 280.491398)"><g><path d="M 3.796875 -0.859375 C 4.109375 -0.859375 4.375 -0.890625 4.59375 -0.953125 C 4.8125 -1.023438 4.988281 -1.125 5.125 -1.25 C 5.269531 -1.382812 5.375 -1.535156 5.4375 -1.703125 C 5.507812 -1.878906 5.546875 -2.070312 5.546875 -2.28125 C 5.546875 -2.695312 5.398438 -3.019531 5.109375 -3.25 C 4.816406 -3.488281 4.378906 -3.609375 3.796875 -3.609375 L 2.078125 -3.609375 L 2.078125 -0.859375 Z M 2.078125 -7.09375 L 2.078125 -4.375 L 3.5 -4.375 C 3.800781 -4.375 4.0625 -4.40625 4.28125 -4.46875 C 4.507812 -4.539062 4.695312 -4.632812 4.84375 -4.75 C 4.988281 -4.875 5.09375 -5.019531 5.15625 -5.1875 C 5.226562 -5.351562 5.265625 -5.535156 5.265625 -5.734375 C 5.265625 -6.203125 5.125 -6.546875 4.84375 -6.765625 C 4.570312 -6.984375 4.140625 -7.09375 3.546875 -7.09375 Z M 3.546875 -7.9375 C 4.035156 -7.9375 4.453125 -7.890625 4.796875 -7.796875 C 5.148438 -7.703125 5.441406 -7.566406 5.671875 -7.390625 C 5.898438 -7.210938 6.066406 -6.992188 6.171875 -6.734375 C 6.285156 -6.472656 6.34375 -6.179688 6.34375 -5.859375 C 6.34375 -5.671875 6.3125 -5.484375 6.25 -5.296875 C 6.1875 -5.117188 6.09375 -4.953125 5.96875 -4.796875 C 5.84375 -4.640625 5.6875 -4.5 5.5 -4.375 C 5.320312 -4.257812 5.109375 -4.160156 4.859375 -4.078125 C 5.441406 -3.972656 5.878906 -3.765625 6.171875 -3.453125 C 6.460938 -3.148438 6.609375 -2.753906 6.609375 -2.265625 C 6.609375 -1.921875 6.546875 -1.609375 6.421875 -1.328125 C 6.296875 -1.054688 6.113281 -0.820312 5.875 -0.625 C 5.632812 -0.425781 5.34375 -0.269531 5 -0.15625 C 4.65625 -0.0507812 4.257812 0 3.8125 0 L 1.015625 0 L 1.015625 -7.9375 Z M 3.546875 -7.9375 "/></g></g></g><g fill="#ffffff" fill-opacity="1"><g transform="translate(99.282159, 280.491398)"><g/></g></g><g fill="#ffffff" fill-opacity="1"><g transform="translate(103.621489, 280.491398)"><g><path d="M 5.234375 -2.953125 L 3.984375 -6.171875 C 3.941406 -6.265625 3.898438 -6.375 3.859375 -6.5 C 3.828125 -6.632812 3.789062 -6.773438 3.75 -6.921875 C 3.675781 -6.617188 3.597656 -6.367188 3.515625 -6.171875 L 2.265625 -2.953125 Z M 7.46875 0 L 6.640625 0 C 6.535156 0 6.453125 -0.0195312 6.390625 -0.0625 C 6.335938 -0.113281 6.296875 -0.175781 6.265625 -0.25 L 5.53125 -2.171875 L 1.96875 -2.171875 L 1.21875 -0.25 C 1.195312 -0.1875 1.15625 -0.128906 1.09375 -0.078125 C 1.03125 -0.0234375 0.953125 0 0.859375 0 L 0.03125 0 L 3.203125 -7.9375 L 4.296875 -7.9375 Z M 7.46875 0 "/></g></g></g><g fill="#ffffff" fill-opacity="1"><g transform="translate(112.619514, 280.491398)"><g><path d="M 3.359375 -3.828125 C 3.660156 -3.828125 3.925781 -3.863281 4.15625 -3.9375 C 4.394531 -4.019531 4.59375 -4.132812 4.75 -4.28125 C 4.914062 -4.425781 5.039062 -4.597656 5.125 -4.796875 C 5.207031 -5.003906 5.25 -5.234375 5.25 -5.484375 C 5.25 -5.984375 5.09375 -6.375 4.78125 -6.65625 C 4.46875 -6.945312 3.992188 -7.09375 3.359375 -7.09375 L 2.078125 -7.09375 L 2.078125 -3.828125 Z M 3.359375 -7.9375 C 3.859375 -7.9375 4.289062 -7.878906 4.65625 -7.765625 C 5.03125 -7.648438 5.335938 -7.484375 5.578125 -7.265625 C 5.828125 -7.054688 6.007812 -6.796875 6.125 -6.484375 C 6.25 -6.179688 6.3125 -5.847656 6.3125 -5.484375 C 6.3125 -5.109375 6.242188 -4.765625 6.109375 -4.453125 C 5.984375 -4.148438 5.796875 -3.890625 5.546875 -3.671875 C 5.296875 -3.453125 4.988281 -3.28125 4.625 -3.15625 C 4.257812 -3.03125 3.835938 -2.96875 3.359375 -2.96875 L 2.078125 -2.96875 L 2.078125 0 L 1.015625 0 L 1.015625 -7.9375 Z M 3.359375 -7.9375 "/></g></g></g><g fill="#ffffff" fill-opacity="1"><g transform="translate(120.769824, 280.491398)"><g><path d="M 3.359375 -3.828125 C 3.660156 -3.828125 3.925781 -3.863281 4.15625 -3.9375 C 4.394531 -4.019531 4.59375 -4.132812 4.75 -4.28125 C 4.914062 -4.425781 5.039062 -4.597656 5.125 -4.796875 C 5.207031 -5.003906 5.25 -5.234375 5.25 -5.484375 C 5.25 -5.984375 5.09375 -6.375 4.78125 -6.65625 C 4.46875 -6.945312 3.992188 -7.09375 3.359375 -7.09375 L 2.078125 -7.09375 L 2.078125 -3.828125 Z M 3.359375 -7.9375 C 3.859375 -7.9375 4.289062 -7.878906 4.65625 -7.765625 C 5.03125 -7.648438 5.335938 -7.484375 5.578125 -7.265625 C 5.828125 -7.054688 6.007812 -6.796875 6.125 -6.484375 C 6.25 -6.179688 6.3125 -5.847656 6.3125 -5.484375 C 6.3125 -5.109375 6.242188 -4.765625 6.109375 -4.453125 C 5.984375 -4.148438 5.796875 -3.890625 5.546875 -3.671875 C 5.296875 -3.453125 4.988281 -3.28125 4.625 -3.15625 C 4.257812 -3.03125 3.835938 -2.96875 3.359375 -2.96875 L 2.078125 -2.96875 L 2.078125 0 L 1.015625 0 L 1.015625 -7.9375 Z M 3.359375 -7.9375 "/></g></g></g><g fill="#ffffff" fill-opacity="1"><g transform="translate(128.920135, 280.491398)"><g><path d="M 5.515625 -0.90625 L 5.515625 0 L 1.015625 0 L 1.015625 -7.9375 L 2.078125 -7.9375 L 2.078125 -0.90625 Z M 5.515625 -0.90625 "/></g></g></g><g fill="#ffffff" fill-opacity="1"><g transform="translate(136.10637, 280.491398)"><g><path d="M 2.09375 0 L 1.015625 0 L 1.015625 -7.9375 L 2.09375 -7.9375 Z M 2.09375 0 "/></g></g></g><g fill="#ffffff" fill-opacity="1"><g transform="translate(140.705116, 280.491398)"><g><path d="M 6.59375 -1.640625 C 6.644531 -1.640625 6.691406 -1.613281 6.734375 -1.5625 L 7.171875 -1.109375 C 6.847656 -0.734375 6.453125 -0.4375 5.984375 -0.21875 C 5.523438 -0.0078125 4.960938 0.09375 4.296875 0.09375 C 3.734375 0.09375 3.21875 -0.00390625 2.75 -0.203125 C 2.289062 -0.398438 1.894531 -0.675781 1.5625 -1.03125 C 1.226562 -1.394531 0.972656 -1.820312 0.796875 -2.3125 C 0.617188 -2.8125 0.53125 -3.363281 0.53125 -3.96875 C 0.53125 -4.5625 0.625 -5.109375 0.8125 -5.609375 C 1 -6.109375 1.257812 -6.535156 1.59375 -6.890625 C 1.9375 -7.253906 2.347656 -7.535156 2.828125 -7.734375 C 3.304688 -7.929688 3.832031 -8.03125 4.40625 -8.03125 C 4.96875 -8.03125 5.460938 -7.9375 5.890625 -7.75 C 6.328125 -7.570312 6.710938 -7.328125 7.046875 -7.015625 L 6.6875 -6.53125 C 6.664062 -6.488281 6.632812 -6.453125 6.59375 -6.421875 C 6.5625 -6.398438 6.519531 -6.390625 6.46875 -6.390625 C 6.394531 -6.390625 6.3125 -6.425781 6.21875 -6.5 C 6.125 -6.570312 6 -6.648438 5.84375 -6.734375 C 5.6875 -6.828125 5.488281 -6.910156 5.25 -6.984375 C 5.019531 -7.054688 4.738281 -7.09375 4.40625 -7.09375 C 3.988281 -7.09375 3.609375 -7.019531 3.265625 -6.875 C 2.929688 -6.738281 2.640625 -6.535156 2.390625 -6.265625 C 2.148438 -5.992188 1.960938 -5.664062 1.828125 -5.28125 C 1.691406 -4.894531 1.625 -4.457031 1.625 -3.96875 C 1.625 -3.46875 1.691406 -3.023438 1.828125 -2.640625 C 1.972656 -2.253906 2.164062 -1.925781 2.40625 -1.65625 C 2.65625 -1.382812 2.945312 -1.179688 3.28125 -1.046875 C 3.613281 -0.910156 3.976562 -0.84375 4.375 -0.84375 C 4.601562 -0.84375 4.8125 -0.851562 5 -0.875 C 5.195312 -0.90625 5.375 -0.945312 5.53125 -1 C 5.695312 -1.0625 5.847656 -1.140625 5.984375 -1.234375 C 6.117188 -1.328125 6.253906 -1.4375 6.390625 -1.5625 C 6.453125 -1.613281 6.519531 -1.640625 6.59375 -1.640625 Z M 6.59375 -1.640625 "/></g></g></g><g fill="#ffffff" fill-opacity="1"><g transform="translate(149.603408, 280.491398)"><g><path d="M 5.234375 -2.953125 L 3.984375 -6.171875 C 3.941406 -6.265625 3.898438 -6.375 3.859375 -6.5 C 3.828125 -6.632812 3.789062 -6.773438 3.75 -6.921875 C 3.675781 -6.617188 3.597656 -6.367188 3.515625 -6.171875 L 2.265625 -2.953125 Z M 7.46875 0 L 6.640625 0 C 6.535156 0 6.453125 -0.0195312 6.390625 -0.0625 C 6.335938 -0.113281 6.296875 -0.175781 6.265625 -0.25 L 5.53125 -2.171875 L 1.96875 -2.171875 L 1.21875 -0.25 C 1.195312 -0.1875 1.15625 -0.128906 1.09375 -0.078125 C 1.03125 -0.0234375 0.953125 0 0.859375 0 L 0.03125 0 L 3.203125 -7.9375 L 4.296875 -7.9375 Z M 7.46875 0 "/></g></g></g><g fill="#ffffff" fill-opacity="1"><g transform="translate(158.601432, 280.491398)"><g><path d="M 6.375 -7.03125 L 3.8125 -7.03125 L 3.8125 0 L 2.734375 0 L 2.734375 -7.03125 L 0.171875 -7.03125 L 0.171875 -7.9375 L 6.375 -7.9375 Z M 6.375 -7.03125 "/></g></g></g><g fill="#ffffff" fill-opacity="1"><g transform="translate(166.640923, 280.491398)"><g><path d="M 2.09375 0 L 1.015625 0 L 1.015625 -7.9375 L 2.09375 -7.9375 Z M 2.09375 0 "/></g></g></g><g fill="#ffffff" fill-opacity="1"><g transform="translate(171.239673, 280.491398)"><g><path d="M 8.34375 -3.96875 C 8.34375 -3.375 8.25 -2.828125 8.0625 -2.328125 C 7.875 -1.828125 7.609375 -1.398438 7.265625 -1.046875 C 6.921875 -0.691406 6.507812 -0.414062 6.03125 -0.21875 C 5.550781 -0.0195312 5.019531 0.078125 4.4375 0.078125 C 3.851562 0.078125 3.316406 -0.0195312 2.828125 -0.21875 C 2.347656 -0.414062 1.9375 -0.691406 1.59375 -1.046875 C 1.25 -1.398438 0.984375 -1.828125 0.796875 -2.328125 C 0.609375 -2.828125 0.515625 -3.375 0.515625 -3.96875 C 0.515625 -4.5625 0.609375 -5.101562 0.796875 -5.59375 C 0.984375 -6.09375 1.25 -6.519531 1.59375 -6.875 C 1.9375 -7.238281 2.347656 -7.519531 2.828125 -7.71875 C 3.316406 -7.925781 3.851562 -8.03125 4.4375 -8.03125 C 5.019531 -8.03125 5.550781 -7.925781 6.03125 -7.71875 C 6.507812 -7.519531 6.921875 -7.238281 7.265625 -6.875 C 7.609375 -6.519531 7.875 -6.09375 8.0625 -5.59375 C 8.25 -5.101562 8.34375 -4.5625 8.34375 -3.96875 Z M 7.25 -3.96875 C 7.25 -4.457031 7.179688 -4.894531 7.046875 -5.28125 C 6.910156 -5.664062 6.71875 -5.988281 6.46875 -6.25 C 6.226562 -6.519531 5.9375 -6.726562 5.59375 -6.875 C 5.25 -7.019531 4.863281 -7.09375 4.4375 -7.09375 C 4.007812 -7.09375 3.617188 -7.019531 3.265625 -6.875 C 2.921875 -6.726562 2.625 -6.519531 2.375 -6.25 C 2.132812 -5.988281 1.945312 -5.664062 1.8125 -5.28125 C 1.6875 -4.894531 1.625 -4.457031 1.625 -3.96875 C 1.625 -3.476562 1.6875 -3.039062 1.8125 -2.65625 C 1.945312 -2.269531 2.132812 -1.941406 2.375 -1.671875 C 2.625 -1.410156 2.921875 -1.207031 3.265625 -1.0625 C 3.617188 -0.914062 4.007812 -0.84375 4.4375 -0.84375 C 4.863281 -0.84375 5.25 -0.914062 5.59375 -1.0625 C 5.9375 -1.207031 6.226562 -1.410156 6.46875 -1.671875 C 6.71875 -1.941406 6.910156 -2.269531 7.046875 -2.65625 C 7.179688 -3.039062 7.25 -3.476562 7.25 -3.96875 Z M 7.25 -3.96875 "/></g></g></g><g fill="#ffffff" fill-opacity="1"><g transform="translate(181.606245, 280.491398)"><g><path d="M 7.4375 -7.9375 L 7.4375 0 L 6.90625 0 C 6.820312 0 6.75 -0.015625 6.6875 -0.046875 C 6.632812 -0.078125 6.582031 -0.125 6.53125 -0.1875 L 1.9375 -6.171875 C 1.9375 -6.078125 1.9375 -5.984375 1.9375 -5.890625 C 1.945312 -5.804688 1.953125 -5.726562 1.953125 -5.65625 L 1.953125 0 L 1.015625 0 L 1.015625 -7.9375 L 1.5625 -7.9375 C 1.613281 -7.9375 1.65625 -7.929688 1.6875 -7.921875 C 1.71875 -7.921875 1.742188 -7.910156 1.765625 -7.890625 C 1.796875 -7.878906 1.820312 -7.863281 1.84375 -7.84375 C 1.875 -7.820312 1.90625 -7.789062 1.9375 -7.75 L 6.53125 -1.78125 C 6.519531 -1.875 6.507812 -1.960938 6.5 -2.046875 C 6.5 -2.140625 6.5 -2.226562 6.5 -2.3125 L 6.5 -7.9375 Z M 7.4375 -7.9375 "/></g></g></g><g fill="#ffffff" fill-opacity="1"><g transform="translate(191.56281, 280.491398)"><g/></g></g><g fill="#ffffff" fill-opacity="1"><g transform="translate(195.895601, 280.491398)"><g><path d="M 2.09375 -7.0625 L 2.09375 -4.28125 L 5.34375 -4.28125 L 5.34375 -3.40625 L 2.09375 -3.40625 L 2.09375 0 L 1.015625 0 L 1.015625 -7.9375 L 5.90625 -7.9375 L 5.90625 -7.0625 Z M 2.09375 -7.0625 "/></g></g></g><g fill="#ffffff" fill-opacity="1"><g transform="translate(203.658058, 280.491398)"><g><path d="M 8.34375 -3.96875 C 8.34375 -3.375 8.25 -2.828125 8.0625 -2.328125 C 7.875 -1.828125 7.609375 -1.398438 7.265625 -1.046875 C 6.921875 -0.691406 6.507812 -0.414062 6.03125 -0.21875 C 5.550781 -0.0195312 5.019531 0.078125 4.4375 0.078125 C 3.851562 0.078125 3.316406 -0.0195312 2.828125 -0.21875 C 2.347656 -0.414062 1.9375 -0.691406 1.59375 -1.046875 C 1.25 -1.398438 0.984375 -1.828125 0.796875 -2.328125 C 0.609375 -2.828125 0.515625 -3.375 0.515625 -3.96875 C 0.515625 -4.5625 0.609375 -5.101562 0.796875 -5.59375 C 0.984375 -6.09375 1.25 -6.519531 1.59375 -6.875 C 1.9375 -7.238281 2.347656 -7.519531 2.828125 -7.71875 C 3.316406 -7.925781 3.851562 -8.03125 4.4375 -8.03125 C 5.019531 -8.03125 5.550781 -7.925781 6.03125 -7.71875 C 6.507812 -7.519531 6.921875 -7.238281 7.265625 -6.875 C 7.609375 -6.519531 7.875 -6.09375 8.0625 -5.59375 C 8.25 -5.101562 8.34375 -4.5625 8.34375 -3.96875 Z M 7.25 -3.96875 C 7.25 -4.457031 7.179688 -4.894531 7.046875 -5.28125 C 6.910156 -5.664062 6.71875 -5.988281 6.46875 -6.25 C 6.226562 -6.519531 5.9375 -6.726562 5.59375 -6.875 C 5.25 -7.019531 4.863281 -7.09375 4.4375 -7.09375 C 4.007812 -7.09375 3.617188 -7.019531 3.265625 -6.875 C 2.921875 -6.726562 2.625 -6.519531 2.375 -6.25 C 2.132812 -5.988281 1.945312 -5.664062 1.8125 -5.28125 C 1.6875 -4.894531 1.625 -4.457031 1.625 -3.96875 C 1.625 -3.476562 1.6875 -3.039062 1.8125 -2.65625 C 1.945312 -2.269531 2.132812 -1.941406 2.375 -1.671875 C 2.625 -1.410156 2.921875 -1.207031 3.265625 -1.0625 C 3.617188 -0.914062 4.007812 -0.84375 4.4375 -0.84375 C 4.863281 -0.84375 5.25 -0.914062 5.59375 -1.0625 C 5.9375 -1.207031 6.226562 -1.410156 6.46875 -1.671875 C 6.71875 -1.941406 6.910156 -2.269531 7.046875 -2.65625 C 7.179688 -3.039062 7.25 -3.476562 7.25 -3.96875 Z M 7.25 -3.96875 "/></g></g></g><g fill="#ffffff" fill-opacity="1"><g transform="translate(214.024629, 280.491398)"><g><path d="M 3.21875 -4.09375 C 3.519531 -4.09375 3.789062 -4.128906 4.03125 -4.203125 C 4.269531 -4.285156 4.46875 -4.394531 4.625 -4.53125 C 4.789062 -4.664062 4.914062 -4.828125 5 -5.015625 C 5.082031 -5.210938 5.125 -5.425781 5.125 -5.65625 C 5.125 -6.132812 4.96875 -6.492188 4.65625 -6.734375 C 4.34375 -6.972656 3.875 -7.09375 3.25 -7.09375 L 2.078125 -7.09375 L 2.078125 -4.09375 Z M 6.875 0 L 5.921875 0 C 5.734375 0 5.59375 -0.078125 5.5 -0.234375 L 3.4375 -3.0625 C 3.375 -3.15625 3.304688 -3.21875 3.234375 -3.25 C 3.160156 -3.289062 3.046875 -3.3125 2.890625 -3.3125 L 2.078125 -3.3125 L 2.078125 0 L 1.015625 0 L 1.015625 -7.9375 L 3.25 -7.9375 C 3.757812 -7.9375 4.195312 -7.882812 4.5625 -7.78125 C 4.925781 -7.6875 5.226562 -7.539062 5.46875 -7.34375 C 5.707031 -7.15625 5.882812 -6.925781 6 -6.65625 C 6.113281 -6.382812 6.171875 -6.078125 6.171875 -5.734375 C 6.171875 -5.453125 6.125 -5.191406 6.03125 -4.953125 C 5.945312 -4.710938 5.816406 -4.492188 5.640625 -4.296875 C 5.472656 -4.097656 5.269531 -3.929688 5.03125 -3.796875 C 4.789062 -3.660156 4.515625 -3.554688 4.203125 -3.484375 C 4.347656 -3.410156 4.46875 -3.300781 4.5625 -3.15625 Z M 6.875 0 "/></g></g></g><g fill="#ffffff" fill-opacity="1"><g transform="translate(222.463051, 280.491398)"><g/></g></g><g fill="#ffffff" fill-opacity="1"><g transform="translate(226.795835, 280.491398)"><g><path d="M 6.59375 -1.640625 C 6.644531 -1.640625 6.691406 -1.613281 6.734375 -1.5625 L 7.171875 -1.109375 C 6.847656 -0.734375 6.453125 -0.4375 5.984375 -0.21875 C 5.523438 -0.0078125 4.960938 0.09375 4.296875 0.09375 C 3.734375 0.09375 3.21875 -0.00390625 2.75 -0.203125 C 2.289062 -0.398438 1.894531 -0.675781 1.5625 -1.03125 C 1.226562 -1.394531 0.972656 -1.820312 0.796875 -2.3125 C 0.617188 -2.8125 0.53125 -3.363281 0.53125 -3.96875 C 0.53125 -4.5625 0.625 -5.109375 0.8125 -5.609375 C 1 -6.109375 1.257812 -6.535156 1.59375 -6.890625 C 1.9375 -7.253906 2.347656 -7.535156 2.828125 -7.734375 C 3.304688 -7.929688 3.832031 -8.03125 4.40625 -8.03125 C 4.96875 -8.03125 5.460938 -7.9375 5.890625 -7.75 C 6.328125 -7.570312 6.710938 -7.328125 7.046875 -7.015625 L 6.6875 -6.53125 C 6.664062 -6.488281 6.632812 -6.453125 6.59375 -6.421875 C 6.5625 -6.398438 6.519531 -6.390625 6.46875 -6.390625 C 6.394531 -6.390625 6.3125 -6.425781 6.21875 -6.5 C 6.125 -6.570312 6 -6.648438 5.84375 -6.734375 C 5.6875 -6.828125 5.488281 -6.910156 5.25 -6.984375 C 5.019531 -7.054688 4.738281 -7.09375 4.40625 -7.09375 C 3.988281 -7.09375 3.609375 -7.019531 3.265625 -6.875 C 2.929688 -6.738281 2.640625 -6.535156 2.390625 -6.265625 C 2.148438 -5.992188 1.960938 -5.664062 1.828125 -5.28125 C 1.691406 -4.894531 1.625 -4.457031 1.625 -3.96875 C 1.625 -3.46875 1.691406 -3.023438 1.828125 -2.640625 C 1.972656 -2.253906 2.164062 -1.925781 2.40625 -1.65625 C 2.65625 -1.382812 2.945312 -1.179688 3.28125 -1.046875 C 3.613281 -0.910156 3.976562 -0.84375 4.375 -0.84375 C 4.601562 -0.84375 4.8125 -0.851562 5 -0.875 C 5.195312 -0.90625 5.375 -0.945312 5.53125 -1 C 5.695312 -1.0625 5.847656 -1.140625 5.984375 -1.234375 C 6.117188 -1.328125 6.253906 -1.4375 6.390625 -1.5625 C 6.453125 -1.613281 6.519531 -1.640625 6.59375 -1.640625 Z M 6.59375 -1.640625 "/></g></g></g><g fill="#ffffff" fill-opacity="1"><g transform="translate(235.694123, 280.491398)"><g><path d="M 8.34375 -3.96875 C 8.34375 -3.375 8.25 -2.828125 8.0625 -2.328125 C 7.875 -1.828125 7.609375 -1.398438 7.265625 -1.046875 C 6.921875 -0.691406 6.507812 -0.414062 6.03125 -0.21875 C 5.550781 -0.0195312 5.019531 0.078125 4.4375 0.078125 C 3.851562 0.078125 3.316406 -0.0195312 2.828125 -0.21875 C 2.347656 -0.414062 1.9375 -0.691406 1.59375 -1.046875 C 1.25 -1.398438 0.984375 -1.828125 0.796875 -2.328125 C 0.609375 -2.828125 0.515625 -3.375 0.515625 -3.96875 C 0.515625 -4.5625 0.609375 -5.101562 0.796875 -5.59375 C 0.984375 -6.09375 1.25 -6.519531 1.59375 -6.875 C 1.9375 -7.238281 2.347656 -7.519531 2.828125 -7.71875 C 3.316406 -7.925781 3.851562 -8.03125 4.4375 -8.03125 C 5.019531 -8.03125 5.550781 -7.925781 6.03125 -7.71875 C 6.507812 -7.519531 6.921875 -7.238281 7.265625 -6.875 C 7.609375 -6.519531 7.875 -6.09375 8.0625 -5.59375 C 8.25 -5.101562 8.34375 -4.5625 8.34375 -3.96875 Z M 7.25 -3.96875 C 7.25 -4.457031 7.179688 -4.894531 7.046875 -5.28125 C 6.910156 -5.664062 6.71875 -5.988281 6.46875 -6.25 C 6.226562 -6.519531 5.9375 -6.726562 5.59375 -6.875 C 5.25 -7.019531 4.863281 -7.09375 4.4375 -7.09375 C 4.007812 -7.09375 3.617188 -7.019531 3.265625 -6.875 C 2.921875 -6.726562 2.625 -6.519531 2.375 -6.25 C 2.132812 -5.988281 1.945312 -5.664062 1.8125 -5.28125 C 1.6875 -4.894531 1.625 -4.457031 1.625 -3.96875 C 1.625 -3.476562 1.6875 -3.039062 1.8125 -2.65625 C 1.945312 -2.269531 2.132812 -1.941406 2.375 -1.671875 C 2.625 -1.410156 2.921875 -1.207031 3.265625 -1.0625 C 3.617188 -0.914062 4.007812 -0.84375 4.4375 -0.84375 C 4.863281 -0.84375 5.25 -0.914062 5.59375 -1.0625 C 5.9375 -1.207031 6.226562 -1.410156 6.46875 -1.671875 C 6.71875 -1.941406 6.910156 -2.269531 7.046875 -2.65625 C 7.179688 -3.039062 7.25 -3.476562 7.25 -3.96875 Z M 7.25 -3.96875 "/></g></g></g><g fill="#ffffff" fill-opacity="1"><g transform="translate(246.060688, 280.491398)"><g><path d="M 9.265625 -7.9375 L 9.265625 0 L 8.328125 0 L 8.328125 -5.828125 C 8.328125 -5.910156 8.328125 -5.992188 8.328125 -6.078125 C 8.335938 -6.171875 8.347656 -6.265625 8.359375 -6.359375 L 5.640625 -1.390625 C 5.546875 -1.222656 5.414062 -1.140625 5.25 -1.140625 L 5.09375 -1.140625 C 4.914062 -1.140625 4.785156 -1.222656 4.703125 -1.390625 L 1.921875 -6.375 C 1.941406 -6.175781 1.953125 -5.992188 1.953125 -5.828125 L 1.953125 0 L 1.015625 0 L 1.015625 -7.9375 L 1.8125 -7.9375 C 1.90625 -7.9375 1.976562 -7.925781 2.03125 -7.90625 C 2.082031 -7.882812 2.128906 -7.832031 2.171875 -7.75 L 4.921875 -2.875 C 4.960938 -2.78125 5.003906 -2.6875 5.046875 -2.59375 C 5.085938 -2.5 5.128906 -2.398438 5.171875 -2.296875 C 5.203125 -2.398438 5.238281 -2.5 5.28125 -2.59375 C 5.320312 -2.6875 5.367188 -2.78125 5.421875 -2.875 L 8.109375 -7.75 C 8.148438 -7.832031 8.195312 -7.882812 8.25 -7.90625 C 8.3125 -7.925781 8.390625 -7.9375 8.484375 -7.9375 Z M 9.265625 -7.9375 "/></g></g></g><g fill="#ffffff" fill-opacity="1"><g transform="translate(257.845662, 280.491398)"><g><path d="M 9.265625 -7.9375 L 9.265625 0 L 8.328125 0 L 8.328125 -5.828125 C 8.328125 -5.910156 8.328125 -5.992188 8.328125 -6.078125 C 8.335938 -6.171875 8.347656 -6.265625 8.359375 -6.359375 L 5.640625 -1.390625 C 5.546875 -1.222656 5.414062 -1.140625 5.25 -1.140625 L 5.09375 -1.140625 C 4.914062 -1.140625 4.785156 -1.222656 4.703125 -1.390625 L 1.921875 -6.375 C 1.941406 -6.175781 1.953125 -5.992188 1.953125 -5.828125 L 1.953125 0 L 1.015625 0 L 1.015625 -7.9375 L 1.8125 -7.9375 C 1.90625 -7.9375 1.976562 -7.925781 2.03125 -7.90625 C 2.082031 -7.882812 2.128906 -7.832031 2.171875 -7.75 L 4.921875 -2.875 C 4.960938 -2.78125 5.003906 -2.6875 5.046875 -2.59375 C 5.085938 -2.5 5.128906 -2.398438 5.171875 -2.296875 C 5.203125 -2.398438 5.238281 -2.5 5.28125 -2.59375 C 5.320312 -2.6875 5.367188 -2.78125 5.421875 -2.875 L 8.109375 -7.75 C 8.148438 -7.832031 8.195312 -7.882812 8.25 -7.90625 C 8.3125 -7.925781 8.390625 -7.9375 8.484375 -7.9375 Z M 9.265625 -7.9375 "/></g></g></g><g fill="#ffffff" fill-opacity="1"><g transform="translate(269.630636, 280.491398)"><g><path d="M 4.078125 -0.859375 C 4.398438 -0.859375 4.691406 -0.910156 4.953125 -1.015625 C 5.210938 -1.128906 5.429688 -1.285156 5.609375 -1.484375 C 5.785156 -1.679688 5.921875 -1.914062 6.015625 -2.1875 C 6.117188 -2.46875 6.171875 -2.773438 6.171875 -3.109375 L 6.171875 -7.9375 L 7.234375 -7.9375 L 7.234375 -3.109375 C 7.234375 -2.648438 7.160156 -2.222656 7.015625 -1.828125 C 6.867188 -1.441406 6.660156 -1.101562 6.390625 -0.8125 C 6.117188 -0.53125 5.785156 -0.304688 5.390625 -0.140625 C 5.003906 0.015625 4.566406 0.09375 4.078125 0.09375 C 3.585938 0.09375 3.144531 0.015625 2.75 -0.140625 C 2.363281 -0.304688 2.03125 -0.53125 1.75 -0.8125 C 1.476562 -1.101562 1.269531 -1.441406 1.125 -1.828125 C 0.976562 -2.222656 0.90625 -2.648438 0.90625 -3.109375 L 0.90625 -7.9375 L 1.984375 -7.9375 L 1.984375 -3.125 C 1.984375 -2.789062 2.03125 -2.484375 2.125 -2.203125 C 2.21875 -1.929688 2.351562 -1.691406 2.53125 -1.484375 C 2.707031 -1.285156 2.925781 -1.128906 3.1875 -1.015625 C 3.445312 -0.910156 3.742188 -0.859375 4.078125 -0.859375 Z M 4.078125 -0.859375 "/></g></g></g><g fill="#ffffff" fill-opacity="1"><g transform="translate(279.276921, 280.491398)"><g><path d="M 7.4375 -7.9375 L 7.4375 0 L 6.90625 0 C 6.820312 0 6.75 -0.015625 6.6875 -0.046875 C 6.632812 -0.078125 6.582031 -0.125 6.53125 -0.1875 L 1.9375 -6.171875 C 1.9375 -6.078125 1.9375 -5.984375 1.9375 -5.890625 C 1.945312 -5.804688 1.953125 -5.726562 1.953125 -5.65625 L 1.953125 0 L 1.015625 0 L 1.015625 -7.9375 L 1.5625 -7.9375 C 1.613281 -7.9375 1.65625 -7.929688 1.6875 -7.921875 C 1.71875 -7.921875 1.742188 -7.910156 1.765625 -7.890625 C 1.796875 -7.878906 1.820312 -7.863281 1.84375 -7.84375 C 1.875 -7.820312 1.90625 -7.789062 1.9375 -7.75 L 6.53125 -1.78125 C 6.519531 -1.875 6.507812 -1.960938 6.5 -2.046875 C 6.5 -2.140625 6.5 -2.226562 6.5 -2.3125 L 6.5 -7.9375 Z M 7.4375 -7.9375 "/></g></g></g><g fill="#ffffff" fill-opacity="1"><g transform="translate(289.233478, 280.491398)"><g><path d="M 2.09375 0 L 1.015625 0 L 1.015625 -7.9375 L 2.09375 -7.9375 Z M 2.09375 0 "/></g></g></g><g fill="#ffffff" fill-opacity="1"><g transform="translate(293.832222, 280.491398)"><g><path d="M 6.375 -7.03125 L 3.8125 -7.03125 L 3.8125 0 L 2.734375 0 L 2.734375 -7.03125 L 0.171875 -7.03125 L 0.171875 -7.9375 L 6.375 -7.9375 Z M 6.375 -7.03125 "/></g></g></g><g fill="#ffffff" fill-opacity="1"><g transform="translate(301.871705, 280.491398)"><g><path d="M 4 -3.15625 L 4 0 L 2.921875 0 L 2.921875 -3.15625 L 0.015625 -7.9375 L 0.953125 -7.9375 C 1.046875 -7.9375 1.117188 -7.910156 1.171875 -7.859375 C 1.234375 -7.816406 1.285156 -7.757812 1.328125 -7.6875 L 3.140625 -4.609375 C 3.203125 -4.472656 3.257812 -4.347656 3.3125 -4.234375 C 3.375 -4.128906 3.425781 -4.019531 3.46875 -3.90625 C 3.507812 -4.019531 3.554688 -4.128906 3.609375 -4.234375 C 3.660156 -4.347656 3.71875 -4.472656 3.78125 -4.609375 L 5.59375 -7.6875 C 5.625 -7.75 5.664062 -7.804688 5.71875 -7.859375 C 5.78125 -7.910156 5.859375 -7.9375 5.953125 -7.9375 L 6.90625 -7.9375 Z M 4 -3.15625 "/></g></g></g><g fill="#ffffff" fill-opacity="1"><g transform="translate(310.282418, 280.491398)"><g><path d="M 0.6875 -3.734375 L 3.421875 -3.734375 L 3.421875 -2.90625 L 0.6875 -2.90625 Z M 0.6875 -3.734375 "/></g></g></g><g fill="#ffffff" fill-opacity="1"><g transform="translate(43.901051, 291.572649)"><g><path d="M 7.890625 -3.96875 C 7.890625 -3.375 7.796875 -2.832031 7.609375 -2.34375 C 7.421875 -1.851562 7.15625 -1.4375 6.8125 -1.09375 C 6.46875 -0.75 6.054688 -0.476562 5.578125 -0.28125 C 5.097656 -0.09375 4.566406 0 3.984375 0 L 1.015625 0 L 1.015625 -7.9375 L 3.984375 -7.9375 C 4.566406 -7.9375 5.097656 -7.835938 5.578125 -7.640625 C 6.054688 -7.453125 6.46875 -7.179688 6.8125 -6.828125 C 7.15625 -6.484375 7.421875 -6.066406 7.609375 -5.578125 C 7.796875 -5.097656 7.890625 -4.5625 7.890625 -3.96875 Z M 6.796875 -3.96875 C 6.796875 -4.457031 6.726562 -4.890625 6.59375 -5.265625 C 6.457031 -5.648438 6.265625 -5.972656 6.015625 -6.234375 C 5.773438 -6.503906 5.484375 -6.707031 5.140625 -6.84375 C 4.796875 -6.988281 4.410156 -7.0625 3.984375 -7.0625 L 2.09375 -7.0625 L 2.09375 -0.875 L 3.984375 -0.875 C 4.410156 -0.875 4.796875 -0.941406 5.140625 -1.078125 C 5.484375 -1.222656 5.773438 -1.425781 6.015625 -1.6875 C 6.265625 -1.945312 6.457031 -2.269531 6.59375 -2.65625 C 6.726562 -3.039062 6.796875 -3.476562 6.796875 -3.96875 Z M 6.796875 -3.96875 "/></g></g></g><g fill="#ffffff" fill-opacity="1"><g transform="translate(53.824374, 291.572649)"><g><path d="M 3.21875 -4.09375 C 3.519531 -4.09375 3.789062 -4.128906 4.03125 -4.203125 C 4.269531 -4.285156 4.46875 -4.394531 4.625 -4.53125 C 4.789062 -4.664062 4.914062 -4.828125 5 -5.015625 C 5.082031 -5.210938 5.125 -5.425781 5.125 -5.65625 C 5.125 -6.132812 4.96875 -6.492188 4.65625 -6.734375 C 4.34375 -6.972656 3.875 -7.09375 3.25 -7.09375 L 2.078125 -7.09375 L 2.078125 -4.09375 Z M 6.875 0 L 5.921875 0 C 5.734375 0 5.59375 -0.078125 5.5 -0.234375 L 3.4375 -3.0625 C 3.375 -3.15625 3.304688 -3.21875 3.234375 -3.25 C 3.160156 -3.289062 3.046875 -3.3125 2.890625 -3.3125 L 2.078125 -3.3125 L 2.078125 0 L 1.015625 0 L 1.015625 -7.9375 L 3.25 -7.9375 C 3.757812 -7.9375 4.195312 -7.882812 4.5625 -7.78125 C 4.925781 -7.6875 5.226562 -7.539062 5.46875 -7.34375 C 5.707031 -7.15625 5.882812 -6.925781 6 -6.65625 C 6.113281 -6.382812 6.171875 -6.078125 6.171875 -5.734375 C 6.171875 -5.453125 6.125 -5.191406 6.03125 -4.953125 C 5.945312 -4.710938 5.816406 -4.492188 5.640625 -4.296875 C 5.472656 -4.097656 5.269531 -3.929688 5.03125 -3.796875 C 4.789062 -3.660156 4.515625 -3.554688 4.203125 -3.484375 C 4.347656 -3.410156 4.46875 -3.300781 4.5625 -3.15625 Z M 6.875 0 "/></g></g></g><g fill="#ffffff" fill-opacity="1"><g transform="translate(62.262793, 291.572649)"><g><path d="M 2.09375 0 L 1.015625 0 L 1.015625 -7.9375 L 2.09375 -7.9375 Z M 2.09375 0 "/></g></g></g><g fill="#ffffff" fill-opacity="1"><g transform="translate(66.861542, 291.572649)"><g><path d="M 7.46875 -7.9375 L 4.234375 0 L 3.265625 0 L 0.03125 -7.9375 L 0.890625 -7.9375 C 0.984375 -7.9375 1.0625 -7.910156 1.125 -7.859375 C 1.1875 -7.816406 1.226562 -7.757812 1.25 -7.6875 L 3.5 -2.078125 C 3.539062 -1.953125 3.582031 -1.816406 3.625 -1.671875 C 3.675781 -1.523438 3.722656 -1.367188 3.765625 -1.203125 C 3.796875 -1.367188 3.832031 -1.523438 3.875 -1.671875 C 3.914062 -1.816406 3.960938 -1.953125 4.015625 -2.078125 L 6.25 -7.6875 C 6.269531 -7.75 6.3125 -7.804688 6.375 -7.859375 C 6.4375 -7.910156 6.515625 -7.9375 6.609375 -7.9375 Z M 7.46875 -7.9375 "/></g></g></g><g fill="#ffffff" fill-opacity="1"><g transform="translate(75.859566, 291.572649)"><g><path d="M 5.90625 -0.875 L 5.90625 0 L 1.015625 0 L 1.015625 -7.9375 L 5.90625 -7.9375 L 5.90625 -7.0625 L 2.09375 -7.0625 L 2.09375 -4.421875 L 5.171875 -4.421875 L 5.171875 -3.578125 L 2.09375 -3.578125 L 2.09375 -0.875 Z M 5.90625 -0.875 "/></g></g></g><g fill="#ffffff" fill-opacity="1"><g transform="translate(83.755006, 291.572649)"><g><path d="M 7.4375 -7.9375 L 7.4375 0 L 6.90625 0 C 6.820312 0 6.75 -0.015625 6.6875 -0.046875 C 6.632812 -0.078125 6.582031 -0.125 6.53125 -0.1875 L 1.9375 -6.171875 C 1.9375 -6.078125 1.9375 -5.984375 1.9375 -5.890625 C 1.945312 -5.804688 1.953125 -5.726562 1.953125 -5.65625 L 1.953125 0 L 1.015625 0 L 1.015625 -7.9375 L 1.5625 -7.9375 C 1.613281 -7.9375 1.65625 -7.929688 1.6875 -7.921875 C 1.71875 -7.921875 1.742188 -7.910156 1.765625 -7.890625 C 1.796875 -7.878906 1.820312 -7.863281 1.84375 -7.84375 C 1.875 -7.820312 1.90625 -7.789062 1.9375 -7.75 L 6.53125 -1.78125 C 6.519531 -1.875 6.507812 -1.960938 6.5 -2.046875 C 6.5 -2.140625 6.5 -2.226562 6.5 -2.3125 L 6.5 -7.9375 Z M 7.4375 -7.9375 "/></g></g></g><g fill="#ffffff" fill-opacity="1"><g transform="translate(93.711567, 291.572649)"><g/></g></g><g fill="#ffffff" fill-opacity="1"><g transform="translate(98.044355, 291.572649)"><g><path d="M 3.21875 -4.09375 C 3.519531 -4.09375 3.789062 -4.128906 4.03125 -4.203125 C 4.269531 -4.285156 4.46875 -4.394531 4.625 -4.53125 C 4.789062 -4.664062 4.914062 -4.828125 5 -5.015625 C 5.082031 -5.210938 5.125 -5.425781 5.125 -5.65625 C 5.125 -6.132812 4.96875 -6.492188 4.65625 -6.734375 C 4.34375 -6.972656 3.875 -7.09375 3.25 -7.09375 L 2.078125 -7.09375 L 2.078125 -4.09375 Z M 6.875 0 L 5.921875 0 C 5.734375 0 5.59375 -0.078125 5.5 -0.234375 L 3.4375 -3.0625 C 3.375 -3.15625 3.304688 -3.21875 3.234375 -3.25 C 3.160156 -3.289062 3.046875 -3.3125 2.890625 -3.3125 L 2.078125 -3.3125 L 2.078125 0 L 1.015625 0 L 1.015625 -7.9375 L 3.25 -7.9375 C 3.757812 -7.9375 4.195312 -7.882812 4.5625 -7.78125 C 4.925781 -7.6875 5.226562 -7.539062 5.46875 -7.34375 C 5.707031 -7.15625 5.882812 -6.925781 6 -6.65625 C 6.113281 -6.382812 6.171875 -6.078125 6.171875 -5.734375 C 6.171875 -5.453125 6.125 -5.191406 6.03125 -4.953125 C 5.945312 -4.710938 5.816406 -4.492188 5.640625 -4.296875 C 5.472656 -4.097656 5.269531 -3.929688 5.03125 -3.796875 C 4.789062 -3.660156 4.515625 -3.554688 4.203125 -3.484375 C 4.347656 -3.410156 4.46875 -3.300781 4.5625 -3.15625 Z M 6.875 0 "/></g></g></g><g fill="#ffffff" fill-opacity="1"><g transform="translate(106.482777, 291.572649)"><g><path d="M 5.90625 -0.875 L 5.90625 0 L 1.015625 0 L 1.015625 -7.9375 L 5.90625 -7.9375 L 5.90625 -7.0625 L 2.09375 -7.0625 L 2.09375 -4.421875 L 5.171875 -4.421875 L 5.171875 -3.578125 L 2.09375 -3.578125 L 2.09375 -0.875 Z M 5.90625 -0.875 "/></g></g></g><g fill="#ffffff" fill-opacity="1"><g transform="translate(114.37822, 291.572649)"><g><path d="M 3.359375 -3.828125 C 3.660156 -3.828125 3.925781 -3.863281 4.15625 -3.9375 C 4.394531 -4.019531 4.59375 -4.132812 4.75 -4.28125 C 4.914062 -4.425781 5.039062 -4.597656 5.125 -4.796875 C 5.207031 -5.003906 5.25 -5.234375 5.25 -5.484375 C 5.25 -5.984375 5.09375 -6.375 4.78125 -6.65625 C 4.46875 -6.945312 3.992188 -7.09375 3.359375 -7.09375 L 2.078125 -7.09375 L 2.078125 -3.828125 Z M 3.359375 -7.9375 C 3.859375 -7.9375 4.289062 -7.878906 4.65625 -7.765625 C 5.03125 -7.648438 5.335938 -7.484375 5.578125 -7.265625 C 5.828125 -7.054688 6.007812 -6.796875 6.125 -6.484375 C 6.25 -6.179688 6.3125 -5.847656 6.3125 -5.484375 C 6.3125 -5.109375 6.242188 -4.765625 6.109375 -4.453125 C 5.984375 -4.148438 5.796875 -3.890625 5.546875 -3.671875 C 5.296875 -3.453125 4.988281 -3.28125 4.625 -3.15625 C 4.257812 -3.03125 3.835938 -2.96875 3.359375 -2.96875 L 2.078125 -2.96875 L 2.078125 0 L 1.015625 0 L 1.015625 -7.9375 Z M 3.359375 -7.9375 "/></g></g></g><g fill="#ffffff" fill-opacity="1"><g transform="translate(122.528533, 291.572649)"><g><path d="M 8.34375 -3.96875 C 8.34375 -3.375 8.25 -2.828125 8.0625 -2.328125 C 7.875 -1.828125 7.609375 -1.398438 7.265625 -1.046875 C 6.921875 -0.691406 6.507812 -0.414062 6.03125 -0.21875 C 5.550781 -0.0195312 5.019531 0.078125 4.4375 0.078125 C 3.851562 0.078125 3.316406 -0.0195312 2.828125 -0.21875 C 2.347656 -0.414062 1.9375 -0.691406 1.59375 -1.046875 C 1.25 -1.398438 0.984375 -1.828125 0.796875 -2.328125 C 0.609375 -2.828125 0.515625 -3.375 0.515625 -3.96875 C 0.515625 -4.5625 0.609375 -5.101562 0.796875 -5.59375 C 0.984375 -6.09375 1.25 -6.519531 1.59375 -6.875 C 1.9375 -7.238281 2.347656 -7.519531 2.828125 -7.71875 C 3.316406 -7.925781 3.851562 -8.03125 4.4375 -8.03125 C 5.019531 -8.03125 5.550781 -7.925781 6.03125 -7.71875 C 6.507812 -7.519531 6.921875 -7.238281 7.265625 -6.875 C 7.609375 -6.519531 7.875 -6.09375 8.0625 -5.59375 C 8.25 -5.101562 8.34375 -4.5625 8.34375 -3.96875 Z M 7.25 -3.96875 C 7.25 -4.457031 7.179688 -4.894531 7.046875 -5.28125 C 6.910156 -5.664062 6.71875 -5.988281 6.46875 -6.25 C 6.226562 -6.519531 5.9375 -6.726562 5.59375 -6.875 C 5.25 -7.019531 4.863281 -7.09375 4.4375 -7.09375 C 4.007812 -7.09375 3.617188 -7.019531 3.265625 -6.875 C 2.921875 -6.726562 2.625 -6.519531 2.375 -6.25 C 2.132812 -5.988281 1.945312 -5.664062 1.8125 -5.28125 C 1.6875 -4.894531 1.625 -4.457031 1.625 -3.96875 C 1.625 -3.476562 1.6875 -3.039062 1.8125 -2.65625 C 1.945312 -2.269531 2.132812 -1.941406 2.375 -1.671875 C 2.625 -1.410156 2.921875 -1.207031 3.265625 -1.0625 C 3.617188 -0.914062 4.007812 -0.84375 4.4375 -0.84375 C 4.863281 -0.84375 5.25 -0.914062 5.59375 -1.0625 C 5.9375 -1.207031 6.226562 -1.410156 6.46875 -1.671875 C 6.71875 -1.941406 6.910156 -2.269531 7.046875 -2.65625 C 7.179688 -3.039062 7.25 -3.476562 7.25 -3.96875 Z M 7.25 -3.96875 "/></g></g></g><g fill="#ffffff" fill-opacity="1"><g transform="translate(132.895104, 291.572649)"><g><path d="M 3.21875 -4.09375 C 3.519531 -4.09375 3.789062 -4.128906 4.03125 -4.203125 C 4.269531 -4.285156 4.46875 -4.394531 4.625 -4.53125 C 4.789062 -4.664062 4.914062 -4.828125 5 -5.015625 C 5.082031 -5.210938 5.125 -5.425781 5.125 -5.65625 C 5.125 -6.132812 4.96875 -6.492188 4.65625 -6.734375 C 4.34375 -6.972656 3.875 -7.09375 3.25 -7.09375 L 2.078125 -7.09375 L 2.078125 -4.09375 Z M 6.875 0 L 5.921875 0 C 5.734375 0 5.59375 -0.078125 5.5 -0.234375 L 3.4375 -3.0625 C 3.375 -3.15625 3.304688 -3.21875 3.234375 -3.25 C 3.160156 -3.289062 3.046875 -3.3125 2.890625 -3.3125 L 2.078125 -3.3125 L 2.078125 0 L 1.015625 0 L 1.015625 -7.9375 L 3.25 -7.9375 C 3.757812 -7.9375 4.195312 -7.882812 4.5625 -7.78125 C 4.925781 -7.6875 5.226562 -7.539062 5.46875 -7.34375 C 5.707031 -7.15625 5.882812 -6.925781 6 -6.65625 C 6.113281 -6.382812 6.171875 -6.078125 6.171875 -5.734375 C 6.171875 -5.453125 6.125 -5.191406 6.03125 -4.953125 C 5.945312 -4.710938 5.816406 -4.492188 5.640625 -4.296875 C 5.472656 -4.097656 5.269531 -3.929688 5.03125 -3.796875 C 4.789062 -3.660156 4.515625 -3.554688 4.203125 -3.484375 C 4.347656 -3.410156 4.46875 -3.300781 4.5625 -3.15625 Z M 6.875 0 "/></g></g></g><g fill="#ffffff" fill-opacity="1"><g transform="translate(141.333526, 291.572649)"><g><path d="M 6.375 -7.03125 L 3.8125 -7.03125 L 3.8125 0 L 2.734375 0 L 2.734375 -7.03125 L 0.171875 -7.03125 L 0.171875 -7.9375 L 6.375 -7.9375 Z M 6.375 -7.03125 "/></g></g></g><g fill="#ffffff" fill-opacity="1"><g transform="translate(149.373017, 291.572649)"><g><path d="M 2.09375 0 L 1.015625 0 L 1.015625 -7.9375 L 2.09375 -7.9375 Z M 2.09375 0 "/></g></g></g><g fill="#ffffff" fill-opacity="1"><g transform="translate(153.971767, 291.572649)"><g><path d="M 7.4375 -7.9375 L 7.4375 0 L 6.90625 0 C 6.820312 0 6.75 -0.015625 6.6875 -0.046875 C 6.632812 -0.078125 6.582031 -0.125 6.53125 -0.1875 L 1.9375 -6.171875 C 1.9375 -6.078125 1.9375 -5.984375 1.9375 -5.890625 C 1.945312 -5.804688 1.953125 -5.726562 1.953125 -5.65625 L 1.953125 0 L 1.015625 0 L 1.015625 -7.9375 L 1.5625 -7.9375 C 1.613281 -7.9375 1.65625 -7.929688 1.6875 -7.921875 C 1.71875 -7.921875 1.742188 -7.910156 1.765625 -7.890625 C 1.796875 -7.878906 1.820312 -7.863281 1.84375 -7.84375 C 1.875 -7.820312 1.90625 -7.789062 1.9375 -7.75 L 6.53125 -1.78125 C 6.519531 -1.875 6.507812 -1.960938 6.5 -2.046875 C 6.5 -2.140625 6.5 -2.226562 6.5 -2.3125 L 6.5 -7.9375 Z M 7.4375 -7.9375 "/></g></g></g><g fill="#ffffff" fill-opacity="1"><g transform="translate(163.928332, 291.572649)"><g><path d="M 7.46875 -3.8125 L 7.46875 -0.765625 C 7.0625 -0.484375 6.628906 -0.269531 6.171875 -0.125 C 5.722656 0.0195312 5.234375 0.09375 4.703125 0.09375 C 4.054688 0.09375 3.476562 -0.00390625 2.96875 -0.203125 C 2.457031 -0.398438 2.019531 -0.675781 1.65625 -1.03125 C 1.289062 -1.394531 1.007812 -1.820312 0.8125 -2.3125 C 0.613281 -2.8125 0.515625 -3.363281 0.515625 -3.96875 C 0.515625 -4.570312 0.609375 -5.125 0.796875 -5.625 C 0.992188 -6.125 1.265625 -6.550781 1.609375 -6.90625 C 1.960938 -7.257812 2.390625 -7.535156 2.890625 -7.734375 C 3.398438 -7.929688 3.960938 -8.03125 4.578125 -8.03125 C 4.890625 -8.03125 5.179688 -8.003906 5.453125 -7.953125 C 5.722656 -7.910156 5.972656 -7.84375 6.203125 -7.75 C 6.429688 -7.664062 6.644531 -7.5625 6.84375 -7.4375 C 7.039062 -7.3125 7.222656 -7.175781 7.390625 -7.03125 L 7.078125 -6.53125 C 7.035156 -6.457031 6.972656 -6.410156 6.890625 -6.390625 C 6.816406 -6.367188 6.734375 -6.390625 6.640625 -6.453125 C 6.554688 -6.503906 6.457031 -6.566406 6.34375 -6.640625 C 6.226562 -6.710938 6.085938 -6.78125 5.921875 -6.84375 C 5.753906 -6.914062 5.554688 -6.972656 5.328125 -7.015625 C 5.109375 -7.066406 4.847656 -7.09375 4.546875 -7.09375 C 4.097656 -7.09375 3.691406 -7.019531 3.328125 -6.875 C 2.972656 -6.726562 2.664062 -6.519531 2.40625 -6.25 C 2.15625 -5.976562 1.960938 -5.648438 1.828125 -5.265625 C 1.691406 -4.878906 1.625 -4.445312 1.625 -3.96875 C 1.625 -3.46875 1.691406 -3.019531 1.828125 -2.625 C 1.972656 -2.226562 2.175781 -1.894531 2.4375 -1.625 C 2.707031 -1.351562 3.03125 -1.144531 3.40625 -1 C 3.78125 -0.851562 4.203125 -0.78125 4.671875 -0.78125 C 5.035156 -0.78125 5.359375 -0.820312 5.640625 -0.90625 C 5.929688 -0.988281 6.210938 -1.101562 6.484375 -1.25 L 6.484375 -3 L 5.25 -3 C 5.1875 -3 5.132812 -3.019531 5.09375 -3.0625 C 5.050781 -3.101562 5.03125 -3.148438 5.03125 -3.203125 L 5.03125 -3.8125 Z M 7.46875 -3.8125 "/></g></g></g><g fill="#ffffff" fill-opacity="1"><g transform="translate(173.519212, 291.572649)"><g/></g></g><g fill="#ffffff" fill-opacity="1"><g transform="translate(177.851997, 291.572649)"><g><path d="M 5.234375 -2.953125 L 3.984375 -6.171875 C 3.941406 -6.265625 3.898438 -6.375 3.859375 -6.5 C 3.828125 -6.632812 3.789062 -6.773438 3.75 -6.921875 C 3.675781 -6.617188 3.597656 -6.367188 3.515625 -6.171875 L 2.265625 -2.953125 Z M 7.46875 0 L 6.640625 0 C 6.535156 0 6.453125 -0.0195312 6.390625 -0.0625 C 6.335938 -0.113281 6.296875 -0.175781 6.265625 -0.25 L 5.53125 -2.171875 L 1.96875 -2.171875 L 1.21875 -0.25 C 1.195312 -0.1875 1.15625 -0.128906 1.09375 -0.078125 C 1.03125 -0.0234375 0.953125 0 0.859375 0 L 0.03125 0 L 3.203125 -7.9375 L 4.296875 -7.9375 Z M 7.46875 0 "/></g></g></g><g fill="#ffffff" fill-opacity="1"><g transform="translate(186.850017, 291.572649)"><g><path d="M 7.4375 -7.9375 L 7.4375 0 L 6.90625 0 C 6.820312 0 6.75 -0.015625 6.6875 -0.046875 C 6.632812 -0.078125 6.582031 -0.125 6.53125 -0.1875 L 1.9375 -6.171875 C 1.9375 -6.078125 1.9375 -5.984375 1.9375 -5.890625 C 1.945312 -5.804688 1.953125 -5.726562 1.953125 -5.65625 L 1.953125 0 L 1.015625 0 L 1.015625 -7.9375 L 1.5625 -7.9375 C 1.613281 -7.9375 1.65625 -7.929688 1.6875 -7.921875 C 1.71875 -7.921875 1.742188 -7.910156 1.765625 -7.890625 C 1.796875 -7.878906 1.820312 -7.863281 1.84375 -7.84375 C 1.875 -7.820312 1.90625 -7.789062 1.9375 -7.75 L 6.53125 -1.78125 C 6.519531 -1.875 6.507812 -1.960938 6.5 -2.046875 C 6.5 -2.140625 6.5 -2.226562 6.5 -2.3125 L 6.5 -7.9375 Z M 7.4375 -7.9375 "/></g></g></g><g fill="#ffffff" fill-opacity="1"><g transform="translate(196.806575, 291.572649)"><g><path d="M 7.890625 -3.96875 C 7.890625 -3.375 7.796875 -2.832031 7.609375 -2.34375 C 7.421875 -1.851562 7.15625 -1.4375 6.8125 -1.09375 C 6.46875 -0.75 6.054688 -0.476562 5.578125 -0.28125 C 5.097656 -0.09375 4.566406 0 3.984375 0 L 1.015625 0 L 1.015625 -7.9375 L 3.984375 -7.9375 C 4.566406 -7.9375 5.097656 -7.835938 5.578125 -7.640625 C 6.054688 -7.453125 6.46875 -7.179688 6.8125 -6.828125 C 7.15625 -6.484375 7.421875 -6.066406 7.609375 -5.578125 C 7.796875 -5.097656 7.890625 -4.5625 7.890625 -3.96875 Z M 6.796875 -3.96875 C 6.796875 -4.457031 6.726562 -4.890625 6.59375 -5.265625 C 6.457031 -5.648438 6.265625 -5.972656 6.015625 -6.234375 C 5.773438 -6.503906 5.484375 -6.707031 5.140625 -6.84375 C 4.796875 -6.988281 4.410156 -7.0625 3.984375 -7.0625 L 2.09375 -7.0625 L 2.09375 -0.875 L 3.984375 -0.875 C 4.410156 -0.875 4.796875 -0.941406 5.140625 -1.078125 C 5.484375 -1.222656 5.773438 -1.425781 6.015625 -1.6875 C 6.265625 -1.945312 6.457031 -2.269531 6.59375 -2.65625 C 6.726562 -3.039062 6.796875 -3.476562 6.796875 -3.96875 Z M 6.796875 -3.96875 "/></g></g></g><g fill="#ffffff" fill-opacity="1"><g transform="translate(206.729894, 291.572649)"><g/></g></g><g fill="#ffffff" fill-opacity="1"><g transform="translate(211.062678, 291.572649)"><g><path d="M 9.265625 -7.9375 L 9.265625 0 L 8.328125 0 L 8.328125 -5.828125 C 8.328125 -5.910156 8.328125 -5.992188 8.328125 -6.078125 C 8.335938 -6.171875 8.347656 -6.265625 8.359375 -6.359375 L 5.640625 -1.390625 C 5.546875 -1.222656 5.414062 -1.140625 5.25 -1.140625 L 5.09375 -1.140625 C 4.914062 -1.140625 4.785156 -1.222656 4.703125 -1.390625 L 1.921875 -6.375 C 1.941406 -6.175781 1.953125 -5.992188 1.953125 -5.828125 L 1.953125 0 L 1.015625 0 L 1.015625 -7.9375 L 1.8125 -7.9375 C 1.90625 -7.9375 1.976562 -7.925781 2.03125 -7.90625 C 2.082031 -7.882812 2.128906 -7.832031 2.171875 -7.75 L 4.921875 -2.875 C 4.960938 -2.78125 5.003906 -2.6875 5.046875 -2.59375 C 5.085938 -2.5 5.128906 -2.398438 5.171875 -2.296875 C 5.203125 -2.398438 5.238281 -2.5 5.28125 -2.59375 C 5.320312 -2.6875 5.367188 -2.78125 5.421875 -2.875 L 8.109375 -7.75 C 8.148438 -7.832031 8.195312 -7.882812 8.25 -7.90625 C 8.3125 -7.925781 8.390625 -7.9375 8.484375 -7.9375 Z M 9.265625 -7.9375 "/></g></g></g><g fill="#ffffff" fill-opacity="1"><g transform="translate(222.847652, 291.572649)"><g><path d="M 5.234375 -2.953125 L 3.984375 -6.171875 C 3.941406 -6.265625 3.898438 -6.375 3.859375 -6.5 C 3.828125 -6.632812 3.789062 -6.773438 3.75 -6.921875 C 3.675781 -6.617188 3.597656 -6.367188 3.515625 -6.171875 L 2.265625 -2.953125 Z M 7.46875 0 L 6.640625 0 C 6.535156 0 6.453125 -0.0195312 6.390625 -0.0625 C 6.335938 -0.113281 6.296875 -0.175781 6.265625 -0.25 L 5.53125 -2.171875 L 1.96875 -2.171875 L 1.21875 -0.25 C 1.195312 -0.1875 1.15625 -0.128906 1.09375 -0.078125 C 1.03125 -0.0234375 0.953125 0 0.859375 0 L 0.03125 0 L 3.203125 -7.9375 L 4.296875 -7.9375 Z M 7.46875 0 "/></g></g></g><g fill="#ffffff" fill-opacity="1"><g transform="translate(231.845673, 291.572649)"><g><path d="M 7.4375 -7.9375 L 7.4375 0 L 6.90625 0 C 6.820312 0 6.75 -0.015625 6.6875 -0.046875 C 6.632812 -0.078125 6.582031 -0.125 6.53125 -0.1875 L 1.9375 -6.171875 C 1.9375 -6.078125 1.9375 -5.984375 1.9375 -5.890625 C 1.945312 -5.804688 1.953125 -5.726562 1.953125 -5.65625 L 1.953125 0 L 1.015625 0 L 1.015625 -7.9375 L 1.5625 -7.9375 C 1.613281 -7.9375 1.65625 -7.929688 1.6875 -7.921875 C 1.71875 -7.921875 1.742188 -7.910156 1.765625 -7.890625 C 1.796875 -7.878906 1.820312 -7.863281 1.84375 -7.84375 C 1.875 -7.820312 1.90625 -7.789062 1.9375 -7.75 L 6.53125 -1.78125 C 6.519531 -1.875 6.507812 -1.960938 6.5 -2.046875 C 6.5 -2.140625 6.5 -2.226562 6.5 -2.3125 L 6.5 -7.9375 Z M 7.4375 -7.9375 "/></g></g></g><g fill="#ffffff" fill-opacity="1"><g transform="translate(241.802231, 291.572649)"><g><path d="M 5.234375 -2.953125 L 3.984375 -6.171875 C 3.941406 -6.265625 3.898438 -6.375 3.859375 -6.5 C 3.828125 -6.632812 3.789062 -6.773438 3.75 -6.921875 C 3.675781 -6.617188 3.597656 -6.367188 3.515625 -6.171875 L 2.265625 -2.953125 Z M 7.46875 0 L 6.640625 0 C 6.535156 0 6.453125 -0.0195312 6.390625 -0.0625 C 6.335938 -0.113281 6.296875 -0.175781 6.265625 -0.25 L 5.53125 -2.171875 L 1.96875 -2.171875 L 1.21875 -0.25 C 1.195312 -0.1875 1.15625 -0.128906 1.09375 -0.078125 C 1.03125 -0.0234375 0.953125 0 0.859375 0 L 0.03125 0 L 3.203125 -7.9375 L 4.296875 -7.9375 Z M 7.46875 0 "/></g></g></g><g fill="#ffffff" fill-opacity="1"><g transform="translate(250.800252, 291.572649)"><g><path d="M 7.46875 -3.8125 L 7.46875 -0.765625 C 7.0625 -0.484375 6.628906 -0.269531 6.171875 -0.125 C 5.722656 0.0195312 5.234375 0.09375 4.703125 0.09375 C 4.054688 0.09375 3.476562 -0.00390625 2.96875 -0.203125 C 2.457031 -0.398438 2.019531 -0.675781 1.65625 -1.03125 C 1.289062 -1.394531 1.007812 -1.820312 0.8125 -2.3125 C 0.613281 -2.8125 0.515625 -3.363281 0.515625 -3.96875 C 0.515625 -4.570312 0.609375 -5.125 0.796875 -5.625 C 0.992188 -6.125 1.265625 -6.550781 1.609375 -6.90625 C 1.960938 -7.257812 2.390625 -7.535156 2.890625 -7.734375 C 3.398438 -7.929688 3.960938 -8.03125 4.578125 -8.03125 C 4.890625 -8.03125 5.179688 -8.003906 5.453125 -7.953125 C 5.722656 -7.910156 5.972656 -7.84375 6.203125 -7.75 C 6.429688 -7.664062 6.644531 -7.5625 6.84375 -7.4375 C 7.039062 -7.3125 7.222656 -7.175781 7.390625 -7.03125 L 7.078125 -6.53125 C 7.035156 -6.457031 6.972656 -6.410156 6.890625 -6.390625 C 6.816406 -6.367188 6.734375 -6.390625 6.640625 -6.453125 C 6.554688 -6.503906 6.457031 -6.566406 6.34375 -6.640625 C 6.226562 -6.710938 6.085938 -6.78125 5.921875 -6.84375 C 5.753906 -6.914062 5.554688 -6.972656 5.328125 -7.015625 C 5.109375 -7.066406 4.847656 -7.09375 4.546875 -7.09375 C 4.097656 -7.09375 3.691406 -7.019531 3.328125 -6.875 C 2.972656 -6.726562 2.664062 -6.519531 2.40625 -6.25 C 2.15625 -5.976562 1.960938 -5.648438 1.828125 -5.265625 C 1.691406 -4.878906 1.625 -4.445312 1.625 -3.96875 C 1.625 -3.46875 1.691406 -3.019531 1.828125 -2.625 C 1.972656 -2.226562 2.175781 -1.894531 2.4375 -1.625 C 2.707031 -1.351562 3.03125 -1.144531 3.40625 -1 C 3.78125 -0.851562 4.203125 -0.78125 4.671875 -0.78125 C 5.035156 -0.78125 5.359375 -0.820312 5.640625 -0.90625 C 5.929688 -0.988281 6.210938 -1.101562 6.484375 -1.25 L 6.484375 -3 L 5.25 -3 C 5.1875 -3 5.132812 -3.019531 5.09375 -3.0625 C 5.050781 -3.101562 5.03125 -3.148438 5.03125 -3.203125 L 5.03125 -3.8125 Z M 7.46875 -3.8125 "/></g></g></g><g fill="#ffffff" fill-opacity="1"><g transform="translate(260.391132, 291.572649)"><g><path d="M 5.90625 -0.875 L 5.90625 0 L 1.015625 0 L 1.015625 -7.9375 L 5.90625 -7.9375 L 5.90625 -7.0625 L 2.09375 -7.0625 L 2.09375 -4.421875 L 5.171875 -4.421875 L 5.171875 -3.578125 L 2.09375 -3.578125 L 2.09375 -0.875 Z M 5.90625 -0.875 "/></g></g></g><g fill="#ffffff" fill-opacity="1"><g transform="translate(268.286568, 291.572649)"><g><path d="M 9.265625 -7.9375 L 9.265625 0 L 8.328125 0 L 8.328125 -5.828125 C 8.328125 -5.910156 8.328125 -5.992188 8.328125 -6.078125 C 8.335938 -6.171875 8.347656 -6.265625 8.359375 -6.359375 L 5.640625 -1.390625 C 5.546875 -1.222656 5.414062 -1.140625 5.25 -1.140625 L 5.09375 -1.140625 C 4.914062 -1.140625 4.785156 -1.222656 4.703125 -1.390625 L 1.921875 -6.375 C 1.941406 -6.175781 1.953125 -5.992188 1.953125 -5.828125 L 1.953125 0 L 1.015625 0 L 1.015625 -7.9375 L 1.8125 -7.9375 C 1.90625 -7.9375 1.976562 -7.925781 2.03125 -7.90625 C 2.082031 -7.882812 2.128906 -7.832031 2.171875 -7.75 L 4.921875 -2.875 C 4.960938 -2.78125 5.003906 -2.6875 5.046875 -2.59375 C 5.085938 -2.5 5.128906 -2.398438 5.171875 -2.296875 C 5.203125 -2.398438 5.238281 -2.5 5.28125 -2.59375 C 5.320312 -2.6875 5.367188 -2.78125 5.421875 -2.875 L 8.109375 -7.75 C 8.148438 -7.832031 8.195312 -7.882812 8.25 -7.90625 C 8.3125 -7.925781 8.390625 -7.9375 8.484375 -7.9375 Z M 9.265625 -7.9375 "/></g></g></g><g fill="#ffffff" fill-opacity="1"><g transform="translate(280.071542, 291.572649)"><g><path d="M 5.90625 -0.875 L 5.90625 0 L 1.015625 0 L 1.015625 -7.9375 L 5.90625 -7.9375 L 5.90625 -7.0625 L 2.09375 -7.0625 L 2.09375 -4.421875 L 5.171875 -4.421875 L 5.171875 -3.578125 L 2.09375 -3.578125 L 2.09375 -0.875 Z M 5.90625 -0.875 "/></g></g></g><g fill="#ffffff" fill-opacity="1"><g transform="translate(287.966992, 291.572649)"><g><path d="M 7.4375 -7.9375 L 7.4375 0 L 6.90625 0 C 6.820312 0 6.75 -0.015625 6.6875 -0.046875 C 6.632812 -0.078125 6.582031 -0.125 6.53125 -0.1875 L 1.9375 -6.171875 C 1.9375 -6.078125 1.9375 -5.984375 1.9375 -5.890625 C 1.945312 -5.804688 1.953125 -5.726562 1.953125 -5.65625 L 1.953125 0 L 1.015625 0 L 1.015625 -7.9375 L 1.5625 -7.9375 C 1.613281 -7.9375 1.65625 -7.929688 1.6875 -7.921875 C 1.71875 -7.921875 1.742188 -7.910156 1.765625 -7.890625 C 1.796875 -7.878906 1.820312 -7.863281 1.84375 -7.84375 C 1.875 -7.820312 1.90625 -7.789062 1.9375 -7.75 L 6.53125 -1.78125 C 6.519531 -1.875 6.507812 -1.960938 6.5 -2.046875 C 6.5 -2.140625 6.5 -2.226562 6.5 -2.3125 L 6.5 -7.9375 Z M 7.4375 -7.9375 "/></g></g></g><g fill="#ffffff" fill-opacity="1"><g transform="translate(297.923564, 291.572649)"><g><path d="M 6.375 -7.03125 L 3.8125 -7.03125 L 3.8125 0 L 2.734375 0 L 2.734375 -7.03125 L 0.171875 -7.03125 L 0.171875 -7.9375 L 6.375 -7.9375 Z M 6.375 -7.03125 "/></g></g></g><g fill="#ffffff" fill-opacity="1"><g transform="translate(305.963062, 291.572649)"><g/></g></g><g fill="#ffffff" fill-opacity="1"><g transform="translate(310.295847, 291.572649)"><g><path d="M 8.34375 -3.96875 C 8.34375 -3.375 8.25 -2.828125 8.0625 -2.328125 C 7.875 -1.828125 7.609375 -1.398438 7.265625 -1.046875 C 6.921875 -0.691406 6.507812 -0.414062 6.03125 -0.21875 C 5.550781 -0.0195312 5.019531 0.078125 4.4375 0.078125 C 3.851562 0.078125 3.316406 -0.0195312 2.828125 -0.21875 C 2.347656 -0.414062 1.9375 -0.691406 1.59375 -1.046875 C 1.25 -1.398438 0.984375 -1.828125 0.796875 -2.328125 C 0.609375 -2.828125 0.515625 -3.375 0.515625 -3.96875 C 0.515625 -4.5625 0.609375 -5.101562 0.796875 -5.59375 C 0.984375 -6.09375 1.25 -6.519531 1.59375 -6.875 C 1.9375 -7.238281 2.347656 -7.519531 2.828125 -7.71875 C 3.316406 -7.925781 3.851562 -8.03125 4.4375 -8.03125 C 5.019531 -8.03125 5.550781 -7.925781 6.03125 -7.71875 C 6.507812 -7.519531 6.921875 -7.238281 7.265625 -6.875 C 7.609375 -6.519531 7.875 -6.09375 8.0625 -5.59375 C 8.25 -5.101562 8.34375 -4.5625 8.34375 -3.96875 Z M 7.25 -3.96875 C 7.25 -4.457031 7.179688 -4.894531 7.046875 -5.28125 C 6.910156 -5.664062 6.71875 -5.988281 6.46875 -6.25 C 6.226562 -6.519531 5.9375 -6.726562 5.59375 -6.875 C 5.25 -7.019531 4.863281 -7.09375 4.4375 -7.09375 C 4.007812 -7.09375 3.617188 -7.019531 3.265625 -6.875 C 2.921875 -6.726562 2.625 -6.519531 2.375 -6.25 C 2.132812 -5.988281 1.945312 -5.664062 1.8125 -5.28125 C 1.6875 -4.894531 1.625 -4.457031 1.625 -3.96875 C 1.625 -3.476562 1.6875 -3.039062 1.8125 -2.65625 C 1.945312 -2.269531 2.132812 -1.941406 2.375 -1.671875 C 2.625 -1.410156 2.921875 -1.207031 3.265625 -1.0625 C 3.617188 -0.914062 4.007812 -0.84375 4.4375 -0.84375 C 4.863281 -0.84375 5.25 -0.914062 5.59375 -1.0625 C 5.9375 -1.207031 6.226562 -1.410156 6.46875 -1.671875 C 6.71875 -1.941406 6.910156 -2.269531 7.046875 -2.65625 C 7.179688 -3.039062 7.25 -3.476562 7.25 -3.96875 Z M 7.25 -3.96875 "/></g></g></g><g fill="#ffffff" fill-opacity="1"><g transform="translate(320.662425, 291.572649)"><g><path d="M 2.09375 -7.0625 L 2.09375 -4.28125 L 5.34375 -4.28125 L 5.34375 -3.40625 L 2.09375 -3.40625 L 2.09375 0 L 1.015625 0 L 1.015625 -7.9375 L 5.90625 -7.9375 L 5.90625 -7.0625 Z M 2.09375 -7.0625 "/></g></g></g><g fill="#ffffff" fill-opacity="1"><g transform="translate(101.875615, 302.6539)"><g><path d="M 3.359375 -3.828125 C 3.660156 -3.828125 3.925781 -3.863281 4.15625 -3.9375 C 4.394531 -4.019531 4.59375 -4.132812 4.75 -4.28125 C 4.914062 -4.425781 5.039062 -4.597656 5.125 -4.796875 C 5.207031 -5.003906 5.25 -5.234375 5.25 -5.484375 C 5.25 -5.984375 5.09375 -6.375 4.78125 -6.65625 C 4.46875 -6.945312 3.992188 -7.09375 3.359375 -7.09375 L 2.078125 -7.09375 L 2.078125 -3.828125 Z M 3.359375 -7.9375 C 3.859375 -7.9375 4.289062 -7.878906 4.65625 -7.765625 C 5.03125 -7.648438 5.335938 -7.484375 5.578125 -7.265625 C 5.828125 -7.054688 6.007812 -6.796875 6.125 -6.484375 C 6.25 -6.179688 6.3125 -5.847656 6.3125 -5.484375 C 6.3125 -5.109375 6.242188 -4.765625 6.109375 -4.453125 C 5.984375 -4.148438 5.796875 -3.890625 5.546875 -3.671875 C 5.296875 -3.453125 4.988281 -3.28125 4.625 -3.15625 C 4.257812 -3.03125 3.835938 -2.96875 3.359375 -2.96875 L 2.078125 -2.96875 L 2.078125 0 L 1.015625 0 L 1.015625 -7.9375 Z M 3.359375 -7.9375 "/></g></g></g><g fill="#ffffff" fill-opacity="1"><g transform="translate(110.025925, 302.6539)"><g><path d="M 4.078125 -0.859375 C 4.398438 -0.859375 4.691406 -0.910156 4.953125 -1.015625 C 5.210938 -1.128906 5.429688 -1.285156 5.609375 -1.484375 C 5.785156 -1.679688 5.921875 -1.914062 6.015625 -2.1875 C 6.117188 -2.46875 6.171875 -2.773438 6.171875 -3.109375 L 6.171875 -7.9375 L 7.234375 -7.9375 L 7.234375 -3.109375 C 7.234375 -2.648438 7.160156 -2.222656 7.015625 -1.828125 C 6.867188 -1.441406 6.660156 -1.101562 6.390625 -0.8125 C 6.117188 -0.53125 5.785156 -0.304688 5.390625 -0.140625 C 5.003906 0.015625 4.566406 0.09375 4.078125 0.09375 C 3.585938 0.09375 3.144531 0.015625 2.75 -0.140625 C 2.363281 -0.304688 2.03125 -0.53125 1.75 -0.8125 C 1.476562 -1.101562 1.269531 -1.441406 1.125 -1.828125 C 0.976562 -2.222656 0.90625 -2.648438 0.90625 -3.109375 L 0.90625 -7.9375 L 1.984375 -7.9375 L 1.984375 -3.125 C 1.984375 -2.789062 2.03125 -2.484375 2.125 -2.203125 C 2.21875 -1.929688 2.351562 -1.691406 2.53125 -1.484375 C 2.707031 -1.285156 2.925781 -1.128906 3.1875 -1.015625 C 3.445312 -0.910156 3.742188 -0.859375 4.078125 -0.859375 Z M 4.078125 -0.859375 "/></g></g></g><g fill="#ffffff" fill-opacity="1"><g transform="translate(119.672213, 302.6539)"><g><path d="M 3.796875 -0.859375 C 4.109375 -0.859375 4.375 -0.890625 4.59375 -0.953125 C 4.8125 -1.023438 4.988281 -1.125 5.125 -1.25 C 5.269531 -1.382812 5.375 -1.535156 5.4375 -1.703125 C 5.507812 -1.878906 5.546875 -2.070312 5.546875 -2.28125 C 5.546875 -2.695312 5.398438 -3.019531 5.109375 -3.25 C 4.816406 -3.488281 4.378906 -3.609375 3.796875 -3.609375 L 2.078125 -3.609375 L 2.078125 -0.859375 Z M 2.078125 -7.09375 L 2.078125 -4.375 L 3.5 -4.375 C 3.800781 -4.375 4.0625 -4.40625 4.28125 -4.46875 C 4.507812 -4.539062 4.695312 -4.632812 4.84375 -4.75 C 4.988281 -4.875 5.09375 -5.019531 5.15625 -5.1875 C 5.226562 -5.351562 5.265625 -5.535156 5.265625 -5.734375 C 5.265625 -6.203125 5.125 -6.546875 4.84375 -6.765625 C 4.570312 -6.984375 4.140625 -7.09375 3.546875 -7.09375 Z M 3.546875 -7.9375 C 4.035156 -7.9375 4.453125 -7.890625 4.796875 -7.796875 C 5.148438 -7.703125 5.441406 -7.566406 5.671875 -7.390625 C 5.898438 -7.210938 6.066406 -6.992188 6.171875 -6.734375 C 6.285156 -6.472656 6.34375 -6.179688 6.34375 -5.859375 C 6.34375 -5.671875 6.3125 -5.484375 6.25 -5.296875 C 6.1875 -5.117188 6.09375 -4.953125 5.96875 -4.796875 C 5.84375 -4.640625 5.6875 -4.5 5.5 -4.375 C 5.320312 -4.257812 5.109375 -4.160156 4.859375 -4.078125 C 5.441406 -3.972656 5.878906 -3.765625 6.171875 -3.453125 C 6.460938 -3.148438 6.609375 -2.753906 6.609375 -2.265625 C 6.609375 -1.921875 6.546875 -1.609375 6.421875 -1.328125 C 6.296875 -1.054688 6.113281 -0.820312 5.875 -0.625 C 5.632812 -0.425781 5.34375 -0.269531 5 -0.15625 C 4.65625 -0.0507812 4.257812 0 3.8125 0 L 1.015625 0 L 1.015625 -7.9375 Z M 3.546875 -7.9375 "/></g></g></g><g fill="#ffffff" fill-opacity="1"><g transform="translate(128.332264, 302.6539)"><g><path d="M 5.515625 -0.90625 L 5.515625 0 L 1.015625 0 L 1.015625 -7.9375 L 2.078125 -7.9375 L 2.078125 -0.90625 Z M 5.515625 -0.90625 "/></g></g></g><g fill="#ffffff" fill-opacity="1"><g transform="translate(135.518498, 302.6539)"><g><path d="M 2.09375 0 L 1.015625 0 L 1.015625 -7.9375 L 2.09375 -7.9375 Z M 2.09375 0 "/></g></g></g><g fill="#ffffff" fill-opacity="1"><g transform="translate(140.117245, 302.6539)"><g><path d="M 6.59375 -1.640625 C 6.644531 -1.640625 6.691406 -1.613281 6.734375 -1.5625 L 7.171875 -1.109375 C 6.847656 -0.734375 6.453125 -0.4375 5.984375 -0.21875 C 5.523438 -0.0078125 4.960938 0.09375 4.296875 0.09375 C 3.734375 0.09375 3.21875 -0.00390625 2.75 -0.203125 C 2.289062 -0.398438 1.894531 -0.675781 1.5625 -1.03125 C 1.226562 -1.394531 0.972656 -1.820312 0.796875 -2.3125 C 0.617188 -2.8125 0.53125 -3.363281 0.53125 -3.96875 C 0.53125 -4.5625 0.625 -5.109375 0.8125 -5.609375 C 1 -6.109375 1.257812 -6.535156 1.59375 -6.890625 C 1.9375 -7.253906 2.347656 -7.535156 2.828125 -7.734375 C 3.304688 -7.929688 3.832031 -8.03125 4.40625 -8.03125 C 4.96875 -8.03125 5.460938 -7.9375 5.890625 -7.75 C 6.328125 -7.570312 6.710938 -7.328125 7.046875 -7.015625 L 6.6875 -6.53125 C 6.664062 -6.488281 6.632812 -6.453125 6.59375 -6.421875 C 6.5625 -6.398438 6.519531 -6.390625 6.46875 -6.390625 C 6.394531 -6.390625 6.3125 -6.425781 6.21875 -6.5 C 6.125 -6.570312 6 -6.648438 5.84375 -6.734375 C 5.6875 -6.828125 5.488281 -6.910156 5.25 -6.984375 C 5.019531 -7.054688 4.738281 -7.09375 4.40625 -7.09375 C 3.988281 -7.09375 3.609375 -7.019531 3.265625 -6.875 C 2.929688 -6.738281 2.640625 -6.535156 2.390625 -6.265625 C 2.148438 -5.992188 1.960938 -5.664062 1.828125 -5.28125 C 1.691406 -4.894531 1.625 -4.457031 1.625 -3.96875 C 1.625 -3.46875 1.691406 -3.023438 1.828125 -2.640625 C 1.972656 -2.253906 2.164062 -1.925781 2.40625 -1.65625 C 2.65625 -1.382812 2.945312 -1.179688 3.28125 -1.046875 C 3.613281 -0.910156 3.976562 -0.84375 4.375 -0.84375 C 4.601562 -0.84375 4.8125 -0.851562 5 -0.875 C 5.195312 -0.90625 5.375 -0.945312 5.53125 -1 C 5.695312 -1.0625 5.847656 -1.140625 5.984375 -1.234375 C 6.117188 -1.328125 6.253906 -1.4375 6.390625 -1.5625 C 6.453125 -1.613281 6.519531 -1.640625 6.59375 -1.640625 Z M 6.59375 -1.640625 "/></g></g></g><g fill="#ffffff" fill-opacity="1"><g transform="translate(149.015537, 302.6539)"><g/></g></g><g fill="#ffffff" fill-opacity="1"><g transform="translate(153.348324, 302.6539)"><g><path d="M 3.21875 -4.09375 C 3.519531 -4.09375 3.789062 -4.128906 4.03125 -4.203125 C 4.269531 -4.285156 4.46875 -4.394531 4.625 -4.53125 C 4.789062 -4.664062 4.914062 -4.828125 5 -5.015625 C 5.082031 -5.210938 5.125 -5.425781 5.125 -5.65625 C 5.125 -6.132812 4.96875 -6.492188 4.65625 -6.734375 C 4.34375 -6.972656 3.875 -7.09375 3.25 -7.09375 L 2.078125 -7.09375 L 2.078125 -4.09375 Z M 6.875 0 L 5.921875 0 C 5.734375 0 5.59375 -0.078125 5.5 -0.234375 L 3.4375 -3.0625 C 3.375 -3.15625 3.304688 -3.21875 3.234375 -3.25 C 3.160156 -3.289062 3.046875 -3.3125 2.890625 -3.3125 L 2.078125 -3.3125 L 2.078125 0 L 1.015625 0 L 1.015625 -7.9375 L 3.25 -7.9375 C 3.757812 -7.9375 4.195312 -7.882812 4.5625 -7.78125 C 4.925781 -7.6875 5.226562 -7.539062 5.46875 -7.34375 C 5.707031 -7.15625 5.882812 -6.925781 6 -6.65625 C 6.113281 -6.382812 6.171875 -6.078125 6.171875 -5.734375 C 6.171875 -5.453125 6.125 -5.191406 6.03125 -4.953125 C 5.945312 -4.710938 5.816406 -4.492188 5.640625 -4.296875 C 5.472656 -4.097656 5.269531 -3.929688 5.03125 -3.796875 C 4.789062 -3.660156 4.515625 -3.554688 4.203125 -3.484375 C 4.347656 -3.410156 4.46875 -3.300781 4.5625 -3.15625 Z M 6.875 0 "/></g></g></g><g fill="#ffffff" fill-opacity="1"><g transform="translate(161.786747, 302.6539)"><g><path d="M 8.34375 -3.96875 C 8.34375 -3.375 8.25 -2.828125 8.0625 -2.328125 C 7.875 -1.828125 7.609375 -1.398438 7.265625 -1.046875 C 6.921875 -0.691406 6.507812 -0.414062 6.03125 -0.21875 C 5.550781 -0.0195312 5.019531 0.078125 4.4375 0.078125 C 3.851562 0.078125 3.316406 -0.0195312 2.828125 -0.21875 C 2.347656 -0.414062 1.9375 -0.691406 1.59375 -1.046875 C 1.25 -1.398438 0.984375 -1.828125 0.796875 -2.328125 C 0.609375 -2.828125 0.515625 -3.375 0.515625 -3.96875 C 0.515625 -4.5625 0.609375 -5.101562 0.796875 -5.59375 C 0.984375 -6.09375 1.25 -6.519531 1.59375 -6.875 C 1.9375 -7.238281 2.347656 -7.519531 2.828125 -7.71875 C 3.316406 -7.925781 3.851562 -8.03125 4.4375 -8.03125 C 5.019531 -8.03125 5.550781 -7.925781 6.03125 -7.71875 C 6.507812 -7.519531 6.921875 -7.238281 7.265625 -6.875 C 7.609375 -6.519531 7.875 -6.09375 8.0625 -5.59375 C 8.25 -5.101562 8.34375 -4.5625 8.34375 -3.96875 Z M 7.25 -3.96875 C 7.25 -4.457031 7.179688 -4.894531 7.046875 -5.28125 C 6.910156 -5.664062 6.71875 -5.988281 6.46875 -6.25 C 6.226562 -6.519531 5.9375 -6.726562 5.59375 -6.875 C 5.25 -7.019531 4.863281 -7.09375 4.4375 -7.09375 C 4.007812 -7.09375 3.617188 -7.019531 3.265625 -6.875 C 2.921875 -6.726562 2.625 -6.519531 2.375 -6.25 C 2.132812 -5.988281 1.945312 -5.664062 1.8125 -5.28125 C 1.6875 -4.894531 1.625 -4.457031 1.625 -3.96875 C 1.625 -3.476562 1.6875 -3.039062 1.8125 -2.65625 C 1.945312 -2.269531 2.132812 -1.941406 2.375 -1.671875 C 2.625 -1.410156 2.921875 -1.207031 3.265625 -1.0625 C 3.617188 -0.914062 4.007812 -0.84375 4.4375 -0.84375 C 4.863281 -0.84375 5.25 -0.914062 5.59375 -1.0625 C 5.9375 -1.207031 6.226562 -1.410156 6.46875 -1.671875 C 6.71875 -1.941406 6.910156 -2.269531 7.046875 -2.65625 C 7.179688 -3.039062 7.25 -3.476562 7.25 -3.96875 Z M 7.25 -3.96875 "/></g></g></g><g fill="#ffffff" fill-opacity="1"><g transform="translate(172.153318, 302.6539)"><g><path d="M 5.234375 -2.953125 L 3.984375 -6.171875 C 3.941406 -6.265625 3.898438 -6.375 3.859375 -6.5 C 3.828125 -6.632812 3.789062 -6.773438 3.75 -6.921875 C 3.675781 -6.617188 3.597656 -6.367188 3.515625 -6.171875 L 2.265625 -2.953125 Z M 7.46875 0 L 6.640625 0 C 6.535156 0 6.453125 -0.0195312 6.390625 -0.0625 C 6.335938 -0.113281 6.296875 -0.175781 6.265625 -0.25 L 5.53125 -2.171875 L 1.96875 -2.171875 L 1.21875 -0.25 C 1.195312 -0.1875 1.15625 -0.128906 1.09375 -0.078125 C 1.03125 -0.0234375 0.953125 0 0.859375 0 L 0.03125 0 L 3.203125 -7.9375 L 4.296875 -7.9375 Z M 7.46875 0 "/></g></g></g><g fill="#ffffff" fill-opacity="1"><g transform="translate(181.151346, 302.6539)"><g><path d="M 7.890625 -3.96875 C 7.890625 -3.375 7.796875 -2.832031 7.609375 -2.34375 C 7.421875 -1.851562 7.15625 -1.4375 6.8125 -1.09375 C 6.46875 -0.75 6.054688 -0.476562 5.578125 -0.28125 C 5.097656 -0.09375 4.566406 0 3.984375 0 L 1.015625 0 L 1.015625 -7.9375 L 3.984375 -7.9375 C 4.566406 -7.9375 5.097656 -7.835938 5.578125 -7.640625 C 6.054688 -7.453125 6.46875 -7.179688 6.8125 -6.828125 C 7.15625 -6.484375 7.421875 -6.066406 7.609375 -5.578125 C 7.796875 -5.097656 7.890625 -4.5625 7.890625 -3.96875 Z M 6.796875 -3.96875 C 6.796875 -4.457031 6.726562 -4.890625 6.59375 -5.265625 C 6.457031 -5.648438 6.265625 -5.972656 6.015625 -6.234375 C 5.773438 -6.503906 5.484375 -6.707031 5.140625 -6.84375 C 4.796875 -6.988281 4.410156 -7.0625 3.984375 -7.0625 L 2.09375 -7.0625 L 2.09375 -0.875 L 3.984375 -0.875 C 4.410156 -0.875 4.796875 -0.941406 5.140625 -1.078125 C 5.484375 -1.222656 5.773438 -1.425781 6.015625 -1.6875 C 6.265625 -1.945312 6.457031 -2.269531 6.59375 -2.65625 C 6.726562 -3.039062 6.796875 -3.476562 6.796875 -3.96875 Z M 6.796875 -3.96875 "/></g></g></g><g fill="#ffffff" fill-opacity="1"><g transform="translate(191.074671, 302.6539)"><g><path d="M 11.296875 -7.9375 L 8.828125 0 L 7.859375 0 L 5.84375 -6.046875 C 5.832031 -6.109375 5.816406 -6.171875 5.796875 -6.234375 C 5.773438 -6.304688 5.757812 -6.378906 5.75 -6.453125 C 5.726562 -6.378906 5.707031 -6.304688 5.6875 -6.234375 C 5.664062 -6.171875 5.648438 -6.109375 5.640625 -6.046875 L 3.609375 0 L 2.640625 0 L 0.171875 -7.9375 L 1.0625 -7.9375 C 1.15625 -7.9375 1.234375 -7.910156 1.296875 -7.859375 C 1.367188 -7.816406 1.410156 -7.757812 1.421875 -7.6875 L 3.0625 -2.171875 C 3.09375 -2.066406 3.117188 -1.957031 3.140625 -1.84375 C 3.160156 -1.726562 3.1875 -1.609375 3.21875 -1.484375 C 3.238281 -1.609375 3.257812 -1.726562 3.28125 -1.84375 C 3.3125 -1.957031 3.347656 -2.066406 3.390625 -2.171875 L 5.25 -7.6875 C 5.269531 -7.75 5.3125 -7.804688 5.375 -7.859375 C 5.445312 -7.910156 5.523438 -7.9375 5.609375 -7.9375 L 5.921875 -7.9375 C 6.023438 -7.9375 6.101562 -7.910156 6.15625 -7.859375 C 6.21875 -7.816406 6.265625 -7.757812 6.296875 -7.6875 L 8.15625 -2.171875 C 8.1875 -2.066406 8.210938 -1.957031 8.234375 -1.84375 C 8.265625 -1.738281 8.296875 -1.625 8.328125 -1.5 C 8.347656 -1.625 8.367188 -1.738281 8.390625 -1.84375 C 8.410156 -1.957031 8.429688 -2.066406 8.453125 -2.171875 L 10.109375 -7.6875 C 10.117188 -7.75 10.15625 -7.804688 10.21875 -7.859375 C 10.289062 -7.910156 10.375 -7.9375 10.46875 -7.9375 Z M 11.296875 -7.9375 "/></g></g></g><g fill="#ffffff" fill-opacity="1"><g transform="translate(204.045357, 302.6539)"><g><path d="M 5.234375 -2.953125 L 3.984375 -6.171875 C 3.941406 -6.265625 3.898438 -6.375 3.859375 -6.5 C 3.828125 -6.632812 3.789062 -6.773438 3.75 -6.921875 C 3.675781 -6.617188 3.597656 -6.367188 3.515625 -6.171875 L 2.265625 -2.953125 Z M 7.46875 0 L 6.640625 0 C 6.535156 0 6.453125 -0.0195312 6.390625 -0.0625 C 6.335938 -0.113281 6.296875 -0.175781 6.265625 -0.25 L 5.53125 -2.171875 L 1.96875 -2.171875 L 1.21875 -0.25 C 1.195312 -0.1875 1.15625 -0.128906 1.09375 -0.078125 C 1.03125 -0.0234375 0.953125 0 0.859375 0 L 0.03125 0 L 3.203125 -7.9375 L 4.296875 -7.9375 Z M 7.46875 0 "/></g></g></g><g fill="#ffffff" fill-opacity="1"><g transform="translate(213.043385, 302.6539)"><g><path d="M 4 -3.15625 L 4 0 L 2.921875 0 L 2.921875 -3.15625 L 0.015625 -7.9375 L 0.953125 -7.9375 C 1.046875 -7.9375 1.117188 -7.910156 1.171875 -7.859375 C 1.234375 -7.816406 1.285156 -7.757812 1.328125 -7.6875 L 3.140625 -4.609375 C 3.203125 -4.472656 3.257812 -4.347656 3.3125 -4.234375 C 3.375 -4.128906 3.425781 -4.019531 3.46875 -3.90625 C 3.507812 -4.019531 3.554688 -4.128906 3.609375 -4.234375 C 3.660156 -4.347656 3.71875 -4.472656 3.78125 -4.609375 L 5.59375 -7.6875 C 5.625 -7.75 5.664062 -7.804688 5.71875 -7.859375 C 5.78125 -7.910156 5.859375 -7.9375 5.953125 -7.9375 L 6.90625 -7.9375 Z M 4 -3.15625 "/></g></g></g><g fill="#ffffff" fill-opacity="1"><g transform="translate(221.454098, 302.6539)"><g/></g></g><g fill="#ffffff" fill-opacity="1"><g transform="translate(225.786882, 302.6539)"><g><path d="M 2.09375 0 L 1.015625 0 L 1.015625 -7.9375 L 2.09375 -7.9375 Z M 2.09375 0 "/></g></g></g><g fill="#ffffff" fill-opacity="1"><g transform="translate(230.385626, 302.6539)"><g><path d="M 5.078125 -6.703125 C 5.046875 -6.640625 5.007812 -6.59375 4.96875 -6.5625 C 4.925781 -6.539062 4.878906 -6.53125 4.828125 -6.53125 C 4.765625 -6.53125 4.6875 -6.5625 4.59375 -6.625 C 4.507812 -6.6875 4.40625 -6.753906 4.28125 -6.828125 C 4.15625 -6.910156 4.003906 -6.984375 3.828125 -7.046875 C 3.648438 -7.109375 3.429688 -7.140625 3.171875 -7.140625 C 2.929688 -7.140625 2.71875 -7.101562 2.53125 -7.03125 C 2.351562 -6.96875 2.203125 -6.878906 2.078125 -6.765625 C 1.953125 -6.660156 1.859375 -6.53125 1.796875 -6.375 C 1.734375 -6.226562 1.703125 -6.070312 1.703125 -5.90625 C 1.703125 -5.675781 1.753906 -5.488281 1.859375 -5.34375 C 1.972656 -5.195312 2.117188 -5.070312 2.296875 -4.96875 C 2.472656 -4.863281 2.675781 -4.773438 2.90625 -4.703125 C 3.132812 -4.628906 3.367188 -4.550781 3.609375 -4.46875 C 3.847656 -4.382812 4.078125 -4.289062 4.296875 -4.1875 C 4.523438 -4.09375 4.726562 -3.96875 4.90625 -3.8125 C 5.09375 -3.65625 5.238281 -3.460938 5.34375 -3.234375 C 5.457031 -3.015625 5.515625 -2.738281 5.515625 -2.40625 C 5.515625 -2.0625 5.453125 -1.734375 5.328125 -1.421875 C 5.210938 -1.117188 5.039062 -0.851562 4.8125 -0.625 C 4.582031 -0.40625 4.300781 -0.226562 3.96875 -0.09375 C 3.644531 0.03125 3.273438 0.09375 2.859375 0.09375 C 2.335938 0.09375 1.863281 0 1.4375 -0.1875 C 1.019531 -0.375 0.660156 -0.628906 0.359375 -0.953125 L 0.671875 -1.453125 C 0.703125 -1.492188 0.738281 -1.523438 0.78125 -1.546875 C 0.820312 -1.578125 0.867188 -1.59375 0.921875 -1.59375 C 0.972656 -1.59375 1.03125 -1.570312 1.09375 -1.53125 C 1.15625 -1.5 1.222656 -1.453125 1.296875 -1.390625 C 1.367188 -1.335938 1.457031 -1.273438 1.5625 -1.203125 C 1.664062 -1.128906 1.78125 -1.0625 1.90625 -1 C 2.03125 -0.945312 2.171875 -0.898438 2.328125 -0.859375 C 2.492188 -0.816406 2.679688 -0.796875 2.890625 -0.796875 C 3.140625 -0.796875 3.363281 -0.832031 3.5625 -0.90625 C 3.757812 -0.976562 3.925781 -1.078125 4.0625 -1.203125 C 4.207031 -1.328125 4.316406 -1.476562 4.390625 -1.65625 C 4.460938 -1.832031 4.5 -2.03125 4.5 -2.25 C 4.5 -2.488281 4.441406 -2.6875 4.328125 -2.84375 C 4.222656 -3 4.082031 -3.128906 3.90625 -3.234375 C 3.726562 -3.335938 3.523438 -3.421875 3.296875 -3.484375 C 3.066406 -3.554688 2.832031 -3.628906 2.59375 -3.703125 C 2.363281 -3.785156 2.132812 -3.875 1.90625 -3.96875 C 1.675781 -4.070312 1.472656 -4.203125 1.296875 -4.359375 C 1.117188 -4.523438 0.972656 -4.722656 0.859375 -4.953125 C 0.753906 -5.191406 0.703125 -5.488281 0.703125 -5.84375 C 0.703125 -6.125 0.753906 -6.394531 0.859375 -6.65625 C 0.972656 -6.914062 1.132812 -7.144531 1.34375 -7.34375 C 1.550781 -7.550781 1.804688 -7.71875 2.109375 -7.84375 C 2.410156 -7.96875 2.757812 -8.03125 3.15625 -8.03125 C 3.601562 -8.03125 4.007812 -7.957031 4.375 -7.8125 C 4.738281 -7.675781 5.054688 -7.472656 5.328125 -7.203125 Z M 5.078125 -6.703125 "/></g></g></g><g fill="#ffffff" fill-opacity="1"><g transform="translate(237.893206, 302.6539)"><g><path d="M 5.078125 -6.703125 C 5.046875 -6.640625 5.007812 -6.59375 4.96875 -6.5625 C 4.925781 -6.539062 4.878906 -6.53125 4.828125 -6.53125 C 4.765625 -6.53125 4.6875 -6.5625 4.59375 -6.625 C 4.507812 -6.6875 4.40625 -6.753906 4.28125 -6.828125 C 4.15625 -6.910156 4.003906 -6.984375 3.828125 -7.046875 C 3.648438 -7.109375 3.429688 -7.140625 3.171875 -7.140625 C 2.929688 -7.140625 2.71875 -7.101562 2.53125 -7.03125 C 2.351562 -6.96875 2.203125 -6.878906 2.078125 -6.765625 C 1.953125 -6.660156 1.859375 -6.53125 1.796875 -6.375 C 1.734375 -6.226562 1.703125 -6.070312 1.703125 -5.90625 C 1.703125 -5.675781 1.753906 -5.488281 1.859375 -5.34375 C 1.972656 -5.195312 2.117188 -5.070312 2.296875 -4.96875 C 2.472656 -4.863281 2.675781 -4.773438 2.90625 -4.703125 C 3.132812 -4.628906 3.367188 -4.550781 3.609375 -4.46875 C 3.847656 -4.382812 4.078125 -4.289062 4.296875 -4.1875 C 4.523438 -4.09375 4.726562 -3.96875 4.90625 -3.8125 C 5.09375 -3.65625 5.238281 -3.460938 5.34375 -3.234375 C 5.457031 -3.015625 5.515625 -2.738281 5.515625 -2.40625 C 5.515625 -2.0625 5.453125 -1.734375 5.328125 -1.421875 C 5.210938 -1.117188 5.039062 -0.851562 4.8125 -0.625 C 4.582031 -0.40625 4.300781 -0.226562 3.96875 -0.09375 C 3.644531 0.03125 3.273438 0.09375 2.859375 0.09375 C 2.335938 0.09375 1.863281 0 1.4375 -0.1875 C 1.019531 -0.375 0.660156 -0.628906 0.359375 -0.953125 L 0.671875 -1.453125 C 0.703125 -1.492188 0.738281 -1.523438 0.78125 -1.546875 C 0.820312 -1.578125 0.867188 -1.59375 0.921875 -1.59375 C 0.972656 -1.59375 1.03125 -1.570312 1.09375 -1.53125 C 1.15625 -1.5 1.222656 -1.453125 1.296875 -1.390625 C 1.367188 -1.335938 1.457031 -1.273438 1.5625 -1.203125 C 1.664062 -1.128906 1.78125 -1.0625 1.90625 -1 C 2.03125 -0.945312 2.171875 -0.898438 2.328125 -0.859375 C 2.492188 -0.816406 2.679688 -0.796875 2.890625 -0.796875 C 3.140625 -0.796875 3.363281 -0.832031 3.5625 -0.90625 C 3.757812 -0.976562 3.925781 -1.078125 4.0625 -1.203125 C 4.207031 -1.328125 4.316406 -1.476562 4.390625 -1.65625 C 4.460938 -1.832031 4.5 -2.03125 4.5 -2.25 C 4.5 -2.488281 4.441406 -2.6875 4.328125 -2.84375 C 4.222656 -3 4.082031 -3.128906 3.90625 -3.234375 C 3.726562 -3.335938 3.523438 -3.421875 3.296875 -3.484375 C 3.066406 -3.554688 2.832031 -3.628906 2.59375 -3.703125 C 2.363281 -3.785156 2.132812 -3.875 1.90625 -3.96875 C 1.675781 -4.070312 1.472656 -4.203125 1.296875 -4.359375 C 1.117188 -4.523438 0.972656 -4.722656 0.859375 -4.953125 C 0.753906 -5.191406 0.703125 -5.488281 0.703125 -5.84375 C 0.703125 -6.125 0.753906 -6.394531 0.859375 -6.65625 C 0.972656 -6.914062 1.132812 -7.144531 1.34375 -7.34375 C 1.550781 -7.550781 1.804688 -7.71875 2.109375 -7.84375 C 2.410156 -7.96875 2.757812 -8.03125 3.15625 -8.03125 C 3.601562 -8.03125 4.007812 -7.957031 4.375 -7.8125 C 4.738281 -7.675781 5.054688 -7.472656 5.328125 -7.203125 Z M 5.078125 -6.703125 "/></g></g></g><g fill="#ffffff" fill-opacity="1"><g transform="translate(245.400786, 302.6539)"><g><path d="M 4.078125 -0.859375 C 4.398438 -0.859375 4.691406 -0.910156 4.953125 -1.015625 C 5.210938 -1.128906 5.429688 -1.285156 5.609375 -1.484375 C 5.785156 -1.679688 5.921875 -1.914062 6.015625 -2.1875 C 6.117188 -2.46875 6.171875 -2.773438 6.171875 -3.109375 L 6.171875 -7.9375 L 7.234375 -7.9375 L 7.234375 -3.109375 C 7.234375 -2.648438 7.160156 -2.222656 7.015625 -1.828125 C 6.867188 -1.441406 6.660156 -1.101562 6.390625 -0.8125 C 6.117188 -0.53125 5.785156 -0.304688 5.390625 -0.140625 C 5.003906 0.015625 4.566406 0.09375 4.078125 0.09375 C 3.585938 0.09375 3.144531 0.015625 2.75 -0.140625 C 2.363281 -0.304688 2.03125 -0.53125 1.75 -0.8125 C 1.476562 -1.101562 1.269531 -1.441406 1.125 -1.828125 C 0.976562 -2.222656 0.90625 -2.648438 0.90625 -3.109375 L 0.90625 -7.9375 L 1.984375 -7.9375 L 1.984375 -3.125 C 1.984375 -2.789062 2.03125 -2.484375 2.125 -2.203125 C 2.21875 -1.929688 2.351562 -1.691406 2.53125 -1.484375 C 2.707031 -1.285156 2.925781 -1.128906 3.1875 -1.015625 C 3.445312 -0.910156 3.742188 -0.859375 4.078125 -0.859375 Z M 4.078125 -0.859375 "/></g></g></g><g fill="#ffffff" fill-opacity="1"><g transform="translate(255.04707, 302.6539)"><g><path d="M 5.90625 -0.875 L 5.90625 0 L 1.015625 0 L 1.015625 -7.9375 L 5.90625 -7.9375 L 5.90625 -7.0625 L 2.09375 -7.0625 L 2.09375 -4.421875 L 5.171875 -4.421875 L 5.171875 -3.578125 L 2.09375 -3.578125 L 2.09375 -0.875 Z M 5.90625 -0.875 "/></g></g></g><g fill="#ffffff" fill-opacity="1"><g transform="translate(262.942506, 302.6539)"><g><path d="M 5.078125 -6.703125 C 5.046875 -6.640625 5.007812 -6.59375 4.96875 -6.5625 C 4.925781 -6.539062 4.878906 -6.53125 4.828125 -6.53125 C 4.765625 -6.53125 4.6875 -6.5625 4.59375 -6.625 C 4.507812 -6.6875 4.40625 -6.753906 4.28125 -6.828125 C 4.15625 -6.910156 4.003906 -6.984375 3.828125 -7.046875 C 3.648438 -7.109375 3.429688 -7.140625 3.171875 -7.140625 C 2.929688 -7.140625 2.71875 -7.101562 2.53125 -7.03125 C 2.351562 -6.96875 2.203125 -6.878906 2.078125 -6.765625 C 1.953125 -6.660156 1.859375 -6.53125 1.796875 -6.375 C 1.734375 -6.226562 1.703125 -6.070312 1.703125 -5.90625 C 1.703125 -5.675781 1.753906 -5.488281 1.859375 -5.34375 C 1.972656 -5.195312 2.117188 -5.070312 2.296875 -4.96875 C 2.472656 -4.863281 2.675781 -4.773438 2.90625 -4.703125 C 3.132812 -4.628906 3.367188 -4.550781 3.609375 -4.46875 C 3.847656 -4.382812 4.078125 -4.289062 4.296875 -4.1875 C 4.523438 -4.09375 4.726562 -3.96875 4.90625 -3.8125 C 5.09375 -3.65625 5.238281 -3.460938 5.34375 -3.234375 C 5.457031 -3.015625 5.515625 -2.738281 5.515625 -2.40625 C 5.515625 -2.0625 5.453125 -1.734375 5.328125 -1.421875 C 5.210938 -1.117188 5.039062 -0.851562 4.8125 -0.625 C 4.582031 -0.40625 4.300781 -0.226562 3.96875 -0.09375 C 3.644531 0.03125 3.273438 0.09375 2.859375 0.09375 C 2.335938 0.09375 1.863281 0 1.4375 -0.1875 C 1.019531 -0.375 0.660156 -0.628906 0.359375 -0.953125 L 0.671875 -1.453125 C 0.703125 -1.492188 0.738281 -1.523438 0.78125 -1.546875 C 0.820312 -1.578125 0.867188 -1.59375 0.921875 -1.59375 C 0.972656 -1.59375 1.03125 -1.570312 1.09375 -1.53125 C 1.15625 -1.5 1.222656 -1.453125 1.296875 -1.390625 C 1.367188 -1.335938 1.457031 -1.273438 1.5625 -1.203125 C 1.664062 -1.128906 1.78125 -1.0625 1.90625 -1 C 2.03125 -0.945312 2.171875 -0.898438 2.328125 -0.859375 C 2.492188 -0.816406 2.679688 -0.796875 2.890625 -0.796875 C 3.140625 -0.796875 3.363281 -0.832031 3.5625 -0.90625 C 3.757812 -0.976562 3.925781 -1.078125 4.0625 -1.203125 C 4.207031 -1.328125 4.316406 -1.476562 4.390625 -1.65625 C 4.460938 -1.832031 4.5 -2.03125 4.5 -2.25 C 4.5 -2.488281 4.441406 -2.6875 4.328125 -2.84375 C 4.222656 -3 4.082031 -3.128906 3.90625 -3.234375 C 3.726562 -3.335938 3.523438 -3.421875 3.296875 -3.484375 C 3.066406 -3.554688 2.832031 -3.628906 2.59375 -3.703125 C 2.363281 -3.785156 2.132812 -3.875 1.90625 -3.96875 C 1.675781 -4.070312 1.472656 -4.203125 1.296875 -4.359375 C 1.117188 -4.523438 0.972656 -4.722656 0.859375 -4.953125 C 0.753906 -5.191406 0.703125 -5.488281 0.703125 -5.84375 C 0.703125 -6.125 0.753906 -6.394531 0.859375 -6.65625 C 0.972656 -6.914062 1.132812 -7.144531 1.34375 -7.34375 C 1.550781 -7.550781 1.804688 -7.71875 2.109375 -7.84375 C 2.410156 -7.96875 2.757812 -8.03125 3.15625 -8.03125 C 3.601562 -8.03125 4.007812 -7.957031 4.375 -7.8125 C 4.738281 -7.675781 5.054688 -7.472656 5.328125 -7.203125 Z M 5.078125 -6.703125 "/></g></g></g></svg>